<svg width="67" height="46" viewBox="0 0 67 46" fill="none" xmlns="http://www.w3.org/2000/svg">
<g clip-path="url(#clip0)">
<path d="M61.8664 45.2448C58.733 45.2448 56.8748 43.6525 56.7326 41.3595H59.7284C59.7284 42.1239 60.155 43.1414 62.0087 43.2046C63.2933 43.2046 64.0042 42.4404 64.0042 41.8658C63.862 40.9747 62.7196 40.9115 61.5819 40.7168C60.2973 40.5318 59.3018 40.2737 58.586 39.9572C57.5906 39.446 57.0169 38.3603 57.0169 37.2162C57.0169 35.1759 58.733 33.5836 61.7242 33.5836C64.578 33.5836 66.4315 35.0495 66.5686 37.2794H63.7199C63.7199 36.7094 63.5777 35.7505 61.8662 35.7505C60.7238 35.7505 60.013 35.9403 59.8707 36.768C59.8707 37.9172 62.293 37.8538 64.1465 38.2969C65.8577 38.7448 67.0001 39.8257 67.0001 41.3595C67.0001 44.1639 64.72 45.2448 61.8664 45.2448ZM7.27222 26.429L17.1085 20.7566L22.3844 29.7448H9.1257" fill="#68768E"/>
<path d="M27.9563 44.9067V33.5622V44.9067Z" fill="#68768E"/>
<path d="M27.9563 44.9067V33.5622" stroke="#68768E" stroke-width="4.05119"/>
<path d="M2.70686 39.4038C2.70686 41.1857 4.27582 42.6514 5.98212 42.6514C7.84052 42.6514 9.26252 41.1857 9.26252 39.4038C9.26252 37.6851 7.84052 36.1563 5.98212 36.1563C4.27582 36.1563 2.70686 37.6851 2.70686 39.4038ZM5.84008 45.266C2.70664 45.266 0 42.6514 0 39.4038C0 36.1563 2.70686 33.6051 5.84008 33.6051C7.12472 33.6051 8.2671 33.9264 9.26252 34.6225V33.7315H12.1163V45.0079H9.26274V44.3069C8.40959 44.9447 7.12495 45.266 5.8403 45.266H5.84008ZM43.9115 29.7439L30.2262 6.04203L40.0622 0.306458L57.1702 29.7439H43.9115ZM15.8233 39.4038C15.8233 41.1857 17.2504 42.6514 19.1037 42.6514C20.81 42.6514 22.3841 41.1857 22.3841 39.4038C22.3841 37.6851 20.81 36.1563 19.1037 36.1563C17.2502 36.1563 15.8233 37.6851 15.8233 39.4038ZM18.9614 45.266C15.681 45.266 13.1167 42.6514 13.1167 39.4038C13.1167 36.1563 15.681 33.6051 18.9614 33.6051C20.2412 33.6051 21.3838 33.9264 22.3841 34.6225V29.8461H25.233V45.0079H22.3839V44.3069C21.3836 44.9447 20.2412 45.266 18.9612 45.266H18.9614ZM18.821 16.3001L28.7993 10.696L39.7782 29.7432H29.3684V32.5477H26.5192V29.7432L18.821 16.3001ZM65.1514 32.6359C64.4356 32.6359 63.7247 31.9981 63.7247 31.2337C63.7247 30.4693 64.4356 29.8315 65.1514 29.8315C66.0046 29.8315 66.5786 30.4695 66.5786 31.2337C66.5786 31.9979 66.0046 32.6362 65.1514 32.6362V32.6359ZM65.1514 30.0264C64.4356 30.0264 64.009 30.5959 64.009 31.2337C64.009 31.8715 64.4356 32.4461 65.1514 32.4461C65.8625 32.4461 66.2891 31.8717 66.2891 31.2337C66.2891 30.5957 65.8625 30.0264 65.1514 30.0264Z" fill="#68768E"/>
<path d="M65.4459 32.0013L65.1614 31.3635H64.877V32.0013H64.6613V30.4725H65.3036C65.4459 30.4725 65.7302 30.6674 65.7302 30.9204C65.7302 31.1735 65.5879 31.3003 65.4459 31.3635L65.7302 32.0013H65.4459ZM65.1614 30.6674H64.877V31.1737H65.1614C65.4459 31.1737 65.4459 31.1105 65.4459 30.9204C65.4459 30.7891 65.4459 30.6674 65.1614 30.6674ZM46.3225 39.4022C46.3225 41.1841 47.7497 42.6497 49.6029 42.6497C51.3141 42.6497 52.8784 41.1841 52.8784 39.4022C52.8784 37.6835 51.3141 36.1546 49.6029 36.1546C47.7494 36.1546 46.3225 37.6835 46.3225 39.4022ZM49.456 45.2644C46.1805 45.2644 43.6159 42.6497 43.6159 39.4022C43.6159 36.1546 46.1805 33.6034 49.4557 33.6034C50.7406 33.6034 51.883 33.9247 52.8784 34.6208V33.7298H55.59V45.0062H52.8786V44.3052C51.883 44.943 50.7406 45.2644 49.4557 45.2644H49.456ZM33.2159 39.4022C33.2159 41.1841 34.7848 42.6497 36.4961 42.6497C38.3498 42.6497 39.7765 41.1841 39.7765 39.4022C39.7765 37.6835 38.3496 36.1546 36.4961 36.1546C34.7848 36.1546 33.2159 37.6835 33.2159 39.4022ZM39.7765 29.8444H42.6254V45.0062H39.7765V44.3052C38.9184 44.943 37.776 45.2644 36.4961 45.2644C33.2159 45.2644 30.509 42.6497 30.509 39.4022C30.509 36.1546 33.2159 33.6034 36.4961 33.6034C37.7758 33.6034 38.9184 33.9247 39.7765 34.6208V29.8444Z" fill="#68768E"/>
</g>
<defs>
<clipPath id="clip0">
<rect width="67" height="45" fill="white" transform="translate(0 0.284424)"/>
</clipPath>
</defs>
</svg>
