<svg width="33" height="33" viewBox="0 0 33 33" fill="none" xmlns="http://www.w3.org/2000/svg">
<g clip-path="url(#clip0)">
<path d="M5.08926 17.8941H22.3656C23.1892 17.8941 23.8568 17.2265 23.8568 16.4029C23.8568 15.5794 23.1892 14.9117 22.3656 14.9117H5.08926L7.01726 12.9838C7.59962 12.4016 7.59962 11.4574 7.01726 10.875C6.4351 10.2926 5.49088 10.2926 4.90842 10.875L0.435163 15.3483C0.400568 15.3828 0.367961 15.4188 0.336944 15.4566C0.329388 15.4659 0.322927 15.4758 0.31557 15.4852C0.292805 15.5142 0.270437 15.5432 0.249958 15.5738C0.243993 15.5828 0.239122 15.5922 0.233257 15.6013C0.212778 15.6333 0.192696 15.6656 0.174603 15.6993C0.171124 15.7059 0.168241 15.713 0.164762 15.7197C0.145973 15.7561 0.12788 15.7931 0.112073 15.8313C0.110085 15.836 0.108693 15.8409 0.106804 15.8457C0.0905998 15.8859 0.0755886 15.9265 0.0628638 15.9684C0.0611738 15.9737 0.0602791 15.9791 0.0587879 15.9845C0.046759 16.0256 0.0357242 16.067 0.0272741 16.1095C0.0247888 16.1221 0.0236953 16.1351 0.0214088 16.1478C0.0152452 16.183 0.00908166 16.2182 0.00560222 16.2541C0.000532186 16.3033 -0.00195312 16.353 -0.00195312 16.4029C-0.00195312 16.4528 0.000532186 16.5025 0.00560222 16.5518C0.00908166 16.5882 0.0154441 16.6237 0.0215082 16.6592C0.0236953 16.6715 0.0247888 16.6842 0.0272741 16.6964C0.0358236 16.7392 0.046759 16.7811 0.0588873 16.8225C0.0603785 16.8274 0.0612732 16.8326 0.0627644 16.8375C0.0755886 16.8795 0.0905998 16.9206 0.107003 16.9611C0.108792 16.9655 0.110085 16.9702 0.111974 16.9745C0.12788 17.013 0.146072 17.0502 0.16506 17.0869C0.16834 17.0933 0.171124 17.1001 0.174504 17.1066C0.192796 17.1405 0.212977 17.1731 0.233754 17.2054C0.239321 17.2141 0.244093 17.2234 0.249859 17.2319C0.270437 17.2626 0.293004 17.2919 0.31567 17.3209C0.322927 17.3302 0.329389 17.3401 0.336844 17.3492C0.367961 17.3869 0.400568 17.4231 0.435064 17.4576L4.90833 21.9309C5.1995 22.2221 5.58115 22.3677 5.96279 22.3677C6.34444 22.3677 6.72608 22.2221 7.01716 21.9309C7.59952 21.3485 7.59952 20.4044 7.01716 19.822L5.08926 17.8941Z" fill="#A9A9A9"/>
<path d="M20.6067 4.20508C16.5364 4.20508 12.7493 6.22434 10.4763 9.60645C10.017 10.2899 10.1987 11.2164 10.8822 11.6758C11.5657 12.1351 12.4922 11.9536 12.9516 11.2699C14.6696 8.71353 17.5313 7.18735 20.6067 7.18735C25.6882 7.18745 29.8223 11.3215 29.8223 16.4031C29.8223 21.4846 25.6882 25.6187 20.6067 25.6187C17.5403 25.6187 14.6833 24.0994 12.9641 21.5546C12.5029 20.8722 11.5762 20.6928 10.8936 21.1538C10.2112 21.6149 10.0317 22.5418 10.4928 23.2242C12.7674 26.5911 16.5483 28.6011 20.6067 28.6011C27.3326 28.6011 32.8047 23.1291 32.8047 16.4031C32.8047 9.67703 27.3326 4.20508 20.6067 4.20508Z" fill="#A9A9A9"/>
</g>
<defs>
<clipPath id="clip0">
<rect width="32.8061" height="32.8061" fill="white"/>
</clipPath>
</defs>
</svg>
