<svg width="41" height="37" viewBox="0 0 41 37" fill="none" xmlns="http://www.w3.org/2000/svg">
<g clip-path="url(#clip0)">
<path d="M23.0764 12.6059C23.0764 11.467 22.0972 11.3281 21.1736 11.3281L18.4583 11.3072V16.1197H19.5972V14.3767H20.8472C22.125 14.3767 21.8541 15.092 21.875 16.1197H23.0278V15.1822C23.0278 14.5434 22.9236 14.1336 22.2639 13.9045C22.7778 13.6961 23.0833 13.1614 23.0764 12.6059ZM21.0347 13.3906H19.5972V12.3281H21.0555C21.4097 12.3281 21.7986 12.3975 21.7986 12.842C21.7986 13.3003 21.4305 13.3906 21.0347 13.3906ZM19.875 19.6059H16.2153L14.7569 21.1892L13.3333 19.6059H8.71525L8.70831 24.4184H13.25L14.7291 22.8211L16.1458 24.4184H18.3819L18.3889 22.8003C19.7014 22.8003 21.8125 23.1197 21.8125 21.1822C21.8125 19.9809 20.9583 19.6059 19.875 19.6059ZM12.6666 23.4045H9.84719V22.4461H12.368V21.467H9.84719V20.5989H12.743L13.9861 22.0017L12.6666 23.4045ZM17.2361 23.9739L15.4791 22.0225L17.2361 20.1197V23.9739ZM19.8611 21.8211H18.3889V20.5989H19.8819C20.2708 20.5989 20.5903 20.7586 20.5903 21.1822C20.5903 21.6267 20.2708 21.8211 19.8611 21.8211ZM17.6666 12.3281V11.3142H13.8125V16.1267H17.6666V15.1336H14.9653V14.1753H17.5903V13.1961H14.9653V12.3281H17.6666ZM40.5 18.6892H40.4861H40.5ZM26.9861 20.9045C26.9861 19.7656 26.0069 19.6059 25.1041 19.6059H22.368L22.3611 24.4184H23.5139L23.5208 22.6614H24.743C25.5069 22.6614 25.7708 22.8003 25.7708 23.6197L25.7639 24.4184H26.9166L26.9236 23.46C26.9236 22.842 26.7986 22.4114 26.1597 22.1822C26.6944 21.967 26.9791 21.4322 26.9861 20.9045ZM24.9583 21.6822H23.5208V20.5989H24.9791C25.3333 20.5989 25.7222 20.6684 25.7222 21.1128C25.7222 21.592 25.3472 21.6822 24.9583 21.6822ZM12.9583 16.1267V11.3142H11.0416L9.67358 14.5781L8.16664 11.3142H6.28469V15.8767L4.33331 11.3142H2.63192L0.569417 16.1267H1.81247L2.25692 15.0642H4.65275L5.09719 16.1267H7.44442V12.3628L9.11108 16.1267H10.125L11.7916 12.3628V16.1267H12.9583ZM2.66664 14.0642L3.44442 12.1475L4.24303 14.0642H2.66664ZM35.8194 25.0989V24.7864C35.0694 25.1753 35.5486 25.0989 24.9375 25.0989C24.9375 23.3489 24.9444 23.4392 24.9375 23.3489C24.8194 23.342 24.7153 23.342 24.2847 23.342C24.2847 24.585 24.2778 23.8142 24.2778 25.0989H21.5278C21.5278 24.2586 21.5347 24.0364 21.5347 23.0711C20.8403 23.4878 19.9514 23.5156 19.1528 23.5017C19.1528 24.5225 19.1458 24.0781 19.1458 25.0989H15.75C15.3958 24.7031 15.5625 24.8836 14.6805 23.8906C14.4583 24.1336 13.7916 24.8559 13.5625 25.0989H7.86803V18.6892H13.6389C13.9861 19.0781 13.8333 18.9045 14.7152 19.8836C14.9375 19.6406 15.5625 18.9531 15.8055 18.6892H19.8333C20.5139 18.6892 21.0833 18.8211 21.5208 19.0781V18.6892C25.2916 18.6892 25.9861 18.592 26.7778 19.0434V18.6892H32.2083V19.0503C33 18.5711 33.5694 18.6892 36.7152 18.6892V19.0364C37.4305 18.6267 37.868 18.6753 40.4861 18.6892V6.50863C40.4861 4.66835 38.993 3.17529 37.1527 3.17529H3.81942C1.97914 3.17529 0.486084 4.66835 0.486084 6.50863V14.1336C1.13886 12.6128 1.85414 10.9392 2.09025 10.3906H4.84719C5.14581 11.092 4.95831 10.6475 5.47219 11.8559V10.3906H8.66664C8.86803 10.8211 9.43747 12.0572 9.63192 12.4739C10.0347 11.5295 10.3333 10.8142 10.5069 10.3906H17.6597C17.6597 10.3836 18.4583 10.3906 18.4653 10.3906C21.5 10.4045 22.1875 10.335 22.9375 10.7586V10.3906H25.7083V11.0364C26.2361 10.6128 26.9514 10.3906 27.8403 10.3906H29.7569C29.7569 10.4253 29.8889 10.4114 29.9166 10.4114H32.1666C32.4583 11.092 32.3472 10.8281 32.7777 11.842V10.4114H35.7847C36.125 10.967 35.7152 10.2864 36.5625 11.6892V10.4114H39.3333V16.8003H36.4444C36.0694 16.1753 36.3472 16.6475 35.5277 15.2795V16.8003H31.8611C31.4166 15.7725 31.8541 16.7795 31.4028 15.7378H30.0833C29.7916 16.4322 29.9305 16.0989 29.6389 16.8003H27.7777C26.9236 16.8003 26.2291 16.592 25.7153 16.1822V16.8003H21.0972C21.0764 15.835 21.0903 15.0781 21.0903 15.0781C20.9653 15.0572 20.8541 15.0642 20.4097 15.0642V16.8072H11V16.0156C10.8264 16.4045 10.8125 16.4253 10.6458 16.8072H8.59719C8.31942 16.1892 8.39581 16.3628 8.24303 16.0156V16.8072H4.56942C4.27775 16.1059 4.41664 16.4392 4.12497 15.7447H2.79164C2.49997 16.4392 2.63886 16.1059 2.3472 16.8072H0.499973V30.9531C0.499973 32.7934 1.99303 34.2864 3.83331 34.2864H37.1736C39.0139 34.2864 40.5069 32.7934 40.5069 30.9531V24.6753C39.625 25.2517 38.2361 25.0989 35.8194 25.0989ZM38.3403 20.6197H40.4305V19.6059H38.1458C37.2569 19.6059 36.493 20.0642 36.493 21.0434C36.493 23.335 39.4583 21.9322 39.4583 22.9461C39.4583 23.3003 39.1597 23.3906 38.875 23.3906H36.6527L36.6458 24.4184H38.868C39.4514 24.4184 40.0902 24.2934 40.4305 23.8003V22.0086C39.7014 21.0503 37.7014 21.9184 37.7014 21.0711C37.7014 20.6684 38.0208 20.6197 38.3403 20.6197ZM34.3819 23.3836H32.1458L32.1389 24.4114H34.375C35.4027 24.4114 36.1944 24.0225 36.1944 22.8836C36.1944 20.5781 33.2152 22.1059 33.2152 21.0572C33.2152 20.6684 33.5555 20.6128 33.8541 20.6128H35.9653V19.5989H33.6597C32.7708 19.5989 32.0278 20.0572 32.0278 21.0364C32.0278 23.3281 34.993 21.9045 34.993 22.9392C34.9861 23.3142 34.6666 23.3836 34.3819 23.3836ZM31.4514 20.5989V19.6059H27.618L27.6111 24.4184H31.4444L31.4514 23.4253L28.7708 23.4045V22.4461H31.4028V21.467H28.7778V20.5989H31.4514ZM27.5416 13.092C27.5208 13.1059 27.4444 13.2447 27.4444 13.6197C27.4444 14.0364 27.5069 14.1545 27.5208 14.1684C27.5347 14.1753 27.5972 14.2031 27.7569 14.2031L28.2639 13.0295C28.1875 13.0295 28.118 13.0225 28.0486 13.0225C27.6597 13.0225 27.5625 13.0711 27.5416 13.092ZM28.9583 12.3628H28.9514H28.9583ZM27.8333 11.3072C26.2014 11.3072 25.4722 12.1406 25.4722 13.7586C25.4722 15.3003 26.1805 16.1197 27.7639 16.1197H29.0972L29.5416 15.0572H31.9236L32.3819 16.1197H34.7222V12.5156L36.8889 16.1197H38.5277V11.3281H37.3541V14.6684L35.3333 11.3281H33.5764V15.8697L31.6389 11.3281H29.9166L28.2847 15.1128H27.7708C26.8472 15.1128 26.6528 14.5503 26.6528 13.7309C26.6528 12.0781 27.743 12.342 28.9514 12.3628V11.3072H27.8333ZM30.7569 12.1475L31.5347 14.0642H29.9514L30.7569 12.1475ZM23.7361 11.3142V16.1267H24.9097V11.3142H23.7361Z" fill="#A9A9A9"/>
</g>
<defs>
<clipPath id="clip0">
<rect width="40" height="35.5556" fill="white" transform="translate(0.5 0.953125)"/>
</clipPath>
</defs>
</svg>
