<svg width="33" height="33" viewBox="0 0 33 33" fill="none" xmlns="http://www.w3.org/2000/svg">
<path d="M24.0699 28.0177H8.64369C8.22768 28.0181 7.82356 27.8789 7.49594 27.6226C7.16833 27.3662 6.93616 27.0073 6.83655 26.6034L3.36631 12.7094C3.33245 12.5741 3.32989 12.4329 3.35883 12.2965C3.38776 12.1601 3.44744 12.0321 3.5333 11.9222C3.61917 11.8124 3.72897 11.7236 3.85434 11.6625C3.97971 11.6015 4.11735 11.5699 4.25679 11.5701H28.4568C28.5962 11.5699 28.7339 11.6015 28.8592 11.6625C28.9846 11.7236 29.0944 11.8124 29.1803 11.9222C29.2661 12.0321 29.3258 12.1601 29.3548 12.2965C29.3837 12.4329 29.3811 12.5741 29.3473 12.7094L25.877 26.6034C25.7774 27.0073 25.5452 27.3662 25.2176 27.6226C24.89 27.8789 24.4859 28.0181 24.0699 28.0177V28.0177Z" stroke="#151515" stroke-width="3.27381" stroke-linecap="round" stroke-linejoin="round"/>
<path d="M13.4754 4.8392L9.67773 11.5702" stroke="#151515" stroke-width="3.27381" stroke-linecap="round" stroke-linejoin="round"/>
<path d="M18.8193 4.8392L22.63 11.5702" stroke="#151515" stroke-width="3.27381" stroke-linecap="round" stroke-linejoin="round"/>
</svg>
