<svg width="53" height="53" viewBox="0 0 53 53" fill="none" xmlns="http://www.w3.org/2000/svg">
<g clip-path="url(#clip0)">
<path d="M34.5921 38.2599C24.5509 38.2599 15.8433 36.5753 10.3874 33.4802C8.50978 34.3913 2.59628 37.3393 1.03185 39.2061C0.710599 39.5894 0.335353 40.5762 0.311057 41.0729C0.293509 41.4603 0.734896 42.559 0.734896 42.559C14.0129 48.1715 21.4369 46.0334 28.8594 44.5702C36.7558 43.0193 43.9165 37.9643 43.9165 37.9643C43.9759 37.8981 44.0475 37.832 44.1109 37.7686C40.8538 38.0912 37.6588 38.2599 34.5921 38.2599Z" fill="#5E7C6E"/>
<path d="M34.8043 8.22834L34.6923 8.23104C34.5991 6.98247 33.0887 5.98901 31.2246 5.98901C29.2998 5.98901 27.7394 7.04591 27.7394 8.35117C27.7394 8.37277 27.7475 8.39167 27.7475 8.41326C10.1029 10.2463 10.825 22.5957 11.1841 29.2624C11.2475 30.4299 11.1638 31.5786 11.0855 32.3291C18.2813 36.4271 31.5729 37.9322 46.0657 36.1977C48.7505 34.3471 52.4166 32.5721 52.4166 32.5721C52.4166 32.5721 52.6433 25.7232 52.4166 23.4555C51.222 11.5462 41.0377 8.80201 34.8043 8.22834Z" fill="#5E7C6E"/>
</g>
<defs>
<clipPath id="clip0">
<rect width="52.2078" height="52.2064" fill="white" transform="translate(0.310547)"/>
</clipPath>
</defs>
</svg>
