<svg width="33" height="33" viewBox="0 0 33 33" fill="none" xmlns="http://www.w3.org/2000/svg">
<path d="M14.5664 22.6875H1.28906C0.577113 22.6875 0 23.2646 0 23.9766V31.7109C0 32.4229 0.577113 33 1.28906 33H14.5664C15.2784 33 15.8555 32.4229 15.8555 31.7109V23.9766C15.8555 23.2646 15.2784 22.6875 14.5664 22.6875ZM13.2773 30.4219H2.57812V25.2656H13.2773V30.4219Z" fill="#A9A9A9"/>
<path d="M14.5664 0H1.28906C0.577113 0 0 0.577113 0 1.28906V20.1094C0 20.8213 0.577113 21.3984 1.28906 21.3984H14.5664C15.2784 21.3984 15.8555 20.8213 15.8555 20.1094V1.28906C15.8555 0.577113 15.2784 0 14.5664 0ZM13.2773 18.8203H2.57812V2.57812H13.2773V18.8203Z" fill="#A9A9A9"/>
<path d="M31.7109 0H18.4336C17.7216 0 17.1445 0.577113 17.1445 1.28906V9.02344C17.1445 9.73539 17.7216 10.3125 18.4336 10.3125H31.7109C32.4229 10.3125 33 9.73539 33 9.02344V1.28906C33 0.577113 32.4229 0 31.7109 0ZM30.4219 7.73438H19.7227V2.57812H30.4219V7.73438Z" fill="#A9A9A9"/>
<path d="M31.7109 11.6016H18.4336C17.7216 11.6016 17.1445 12.1787 17.1445 12.8906V31.7109C17.1445 32.4229 17.7216 33 18.4336 33H31.7109C32.4229 33 33 32.4229 33 31.7109V12.8906C33 12.1787 32.4229 11.6016 31.7109 11.6016ZM30.4219 30.4219H19.7227V14.1797H30.4219V30.4219Z" fill="#A9A9A9"/>
</svg>
