<svg width="41" height="37" viewBox="0 0 41 37" fill="none" xmlns="http://www.w3.org/2000/svg">
<g clip-path="url(#clip0)">
<path d="M36.6389 14.5711C36.6389 14.0225 36.2569 13.7309 35.5556 13.7309H35.2153V15.46H35.5417C36.2569 15.46 36.6389 15.1545 36.6389 14.5711ZM37.1667 3.17529H3.83333C1.99306 3.17529 0.5 4.66835 0.5 6.50863V30.9531C0.5 32.7934 1.99306 34.2864 3.83333 34.2864H37.1667C39.0069 34.2864 40.5 32.7934 40.5 30.9531V6.50863C40.5 4.66835 39.0069 3.17529 37.1667 3.17529ZM34.1042 12.8211C35.6736 12.8211 37.7778 12.5364 37.7778 14.5156C37.7778 15.3906 37.3194 15.9531 36.4792 16.1267L38.2708 18.5156H36.9097L35.3681 16.2378H35.2153V18.5156H34.1042V12.8211ZM30.2222 12.8281H33.3681V13.8003H31.3333V15.0642H33.2986V16.0225H31.3333V17.5642H33.3681V18.5225H30.2222V12.8281ZM25.4514 12.8281L26.9722 16.6614L28.5139 12.8281H29.7292L27.2639 18.6753H26.6667L24.2361 12.8281H25.4514ZM21.5694 12.6197C23.2847 12.6197 24.6667 14.0086 24.6667 15.717C24.6667 17.4322 23.2778 18.8142 21.5694 18.8142C19.8542 18.8142 18.4722 17.4253 18.4722 15.717C18.4722 14.0017 19.8611 12.6197 21.5694 12.6197ZM18.1458 13.0434V14.3628C16.75 12.967 14.8958 14.0364 14.8958 15.6822C14.8958 17.4184 16.8056 18.3559 18.1458 17.0156V18.335C16.0833 19.3281 13.75 17.9392 13.75 15.6822C13.75 13.5156 16.0486 12.0017 18.1458 13.0434ZM11.3958 17.6475C12.1875 17.6475 12.9514 16.585 11.1667 15.9531C10.125 15.5711 9.76389 15.1614 9.76389 14.3767C9.76389 12.7656 11.8889 12.1961 13.2153 13.3836L12.6319 14.1336C11.9097 13.3281 10.9028 13.7031 10.9028 14.3072C10.9028 14.6128 11.0903 14.7864 11.7569 15.0225C13.0208 15.4809 13.3958 15.8906 13.3958 16.8003C13.3958 18.8489 10.7014 19.3975 9.46528 17.585L10.1806 16.8975C10.4375 17.3906 10.8681 17.6475 11.3958 17.6475ZM4.34722 18.5225H2.72222V12.8281H4.34722C6.15972 12.8281 7.40972 14.0086 7.40972 15.6822C7.40972 16.967 6.49306 18.5225 4.34722 18.5225ZM9.03472 18.5225H7.92361V12.8281H9.03472V18.5225ZM38.2778 31.0225C38.2778 31.592 37.8056 32.0642 37.2361 32.0642H9.38889C22.5556 29.592 35.9653 22.3975 38.2778 20.9531V31.0225ZM5.64583 14.2586C5.28472 13.9184 4.84028 13.8003 4.125 13.8003H3.83333V17.5642H4.125C4.84028 17.5642 5.30556 17.4253 5.64583 17.1197C6.04167 16.7586 6.26389 16.2309 6.26389 15.6822C6.26389 15.1336 6.04167 14.6059 5.64583 14.2586Z" fill="#A9A9A9"/>
</g>
<defs>
<clipPath id="clip0">
<rect width="40" height="35.5556" fill="white" transform="translate(0.5 0.953125)"/>
</clipPath>
</defs>
</svg>
