<svg width="30" height="30" viewBox="0 0 30 30" fill="none" xmlns="http://www.w3.org/2000/svg">
<path d="M17.5 8.75C18.8807 8.75 20 7.63071 20 6.25C20 4.86929 18.8807 3.75 17.5 3.75C16.1193 3.75 15 4.86929 15 6.25C15 7.63071 16.1193 8.75 17.5 8.75Z" stroke="#151515" stroke-width="2.5" stroke-linecap="round" stroke-linejoin="round"/>
<path d="M18.75 26.25C20.1307 26.25 21.25 25.1307 21.25 23.75C21.25 22.3693 20.1307 21.25 18.75 21.25C17.3693 21.25 16.25 22.3693 16.25 23.75C16.25 25.1307 17.3693 26.25 18.75 26.25Z" stroke="#151515" stroke-width="2.5" stroke-linecap="round" stroke-linejoin="round"/>
<path d="M10 17.5C11.3807 17.5 12.5 16.3807 12.5 15C12.5 13.6193 11.3807 12.5 10 12.5C8.61929 12.5 7.5 13.6193 7.5 15C7.5 16.3807 8.61929 17.5 10 17.5Z" stroke="#151515" stroke-width="2.5" stroke-linecap="round" stroke-linejoin="round"/>
<path d="M3.75 6.25H15" stroke="#151515" stroke-width="2.5" stroke-linecap="round" stroke-linejoin="round"/>
<path d="M20 6.25H26.25" stroke="#151515" stroke-width="2.5" stroke-linecap="round" stroke-linejoin="round"/>
<path d="M3.75 15H7.5" stroke="#151515" stroke-width="2.5" stroke-linecap="round" stroke-linejoin="round"/>
<path d="M12.5 15H26.25" stroke="#151515" stroke-width="2.5" stroke-linecap="round" stroke-linejoin="round"/>
<path d="M3.75 23.75H16.25" stroke="#151515" stroke-width="2.5" stroke-linecap="round" stroke-linejoin="round"/>
<path d="M21.25 23.75H26.25" stroke="#151515" stroke-width="2.5" stroke-linecap="round" stroke-linejoin="round"/>
</svg>
