<svg width="28" height="28" viewBox="0 0 28 28" fill="none" xmlns="http://www.w3.org/2000/svg">
<path d="M24.55 6.46735H15.688C15.3282 6.46735 14.9769 6.31964 14.7342 6.06857L11.969 3.1557C11.3044 2.49316 10.395 2.1471 9.47394 2.1524H3.4499C1.54771 2.15235 0 3.70006 0 5.60219V22.398C0 24.3001 1.54771 25.8478 3.4499 25.8478H24.5627H24.5659C26.4671 25.8394 28.0084 24.2843 27.9999 22.3874V9.91719C27.9999 8.015 26.4522 6.46735 24.55 6.46735ZM25.8899 22.3917C25.8931 23.1302 25.2949 23.7347 24.5607 23.7378H3.4499C2.7114 23.7378 2.11006 23.1365 2.11006 22.398V5.60219C2.11006 4.8637 2.7114 4.26235 3.4499 4.26126H9.50139C9.51298 4.26126 9.52458 4.26126 9.53622 4.26126C9.88858 4.26126 10.2304 4.40159 10.4604 4.62947L13.2108 7.52861C13.8564 8.19536 14.7595 8.5773 15.688 8.5773H24.55C25.2885 8.5773 25.8899 9.17864 25.8899 9.91714V22.3917H25.8899Z" fill="#A9A9A9"/>
</svg>
