<svg width="28" height="19" viewBox="0 0 28 19" fill="none" xmlns="http://www.w3.org/2000/svg">
<path d="M27.8309 9.14662C25.1947 4.1389 19.9758 0.750732 14 0.750732C8.02423 0.750732 2.80387 4.14127 0.16914 9.14709C0.0579383 9.36126 0 9.59787 0 9.83784C0 10.0778 0.0579383 10.3144 0.16914 10.5286C2.80533 15.5363 8.02423 18.9245 14 18.9245C19.9758 18.9245 25.1961 15.5339 27.8309 10.5281C27.9421 10.3139 28 10.0773 28 9.83737C28 9.59739 27.9421 9.36078 27.8309 9.14662ZM14 16.6528C12.6155 16.6528 11.2621 16.2531 10.111 15.5042C8.95985 14.7553 8.06265 13.691 7.53283 12.4456C7.00302 11.2003 6.86439 9.83004 7.13449 8.50803C7.40459 7.18602 8.07127 5.97168 9.05024 5.01856C10.0292 4.06545 11.2765 3.41637 12.6344 3.1534C13.9922 2.89044 15.3997 3.0254 16.6788 3.54122C17.9579 4.05705 19.0511 4.93056 19.8203 6.05131C20.5895 7.17205 21 8.48969 21 9.8376C21.0005 10.7327 20.8197 11.6191 20.4681 12.4462C20.1165 13.2732 19.6009 14.0247 18.9508 14.6576C18.3007 15.2905 17.5288 15.7925 16.6793 16.1349C15.8298 16.4772 14.9194 16.6532 14 16.6528ZM14 5.29417C13.5835 5.29983 13.1696 5.36017 12.7697 5.47354C13.0993 5.90974 13.2576 6.44654 13.2156 6.98657C13.1736 7.5266 12.9343 8.03412 12.5409 8.41707C12.1476 8.80002 11.6263 9.03305 11.0716 9.07391C10.517 9.11476 9.9656 8.96073 9.51756 8.63974C9.26243 9.55486 9.30849 10.5248 9.64924 11.4131C9.98999 12.3014 10.6083 13.0633 11.4171 13.5916C12.2259 14.1199 13.1845 14.3879 14.158 14.3579C15.1314 14.328 16.0707 14.0016 16.8437 13.4247C17.6166 12.8478 18.1843 12.0494 18.4668 11.1419C18.7493 10.2345 18.7324 9.26361 18.4184 8.36599C18.1045 7.46837 17.5093 6.68921 16.7167 6.13816C15.9241 5.58712 14.9739 5.29194 14 5.29417Z" fill="#A9A9A9"/>
</svg>
