<svg width="69" height="47" viewBox="0 0 69 47" fill="none" xmlns="http://www.w3.org/2000/svg">
<path d="M27.205 21.2907C27.7646 20.8562 28.4524 20.7311 29.0745 20.481C29.6373 20.1684 29.8248 19.5431 29.6373 18.921C29.5747 18.6709 29.4497 18.4833 29.1996 18.4208C28.2648 18.1707 27.452 18.6709 26.5172 18.5458C26.3296 18.4833 26.1421 18.3583 26.1421 18.1707C26.2671 17.486 26.4547 16.7982 26.7048 16.1105C28.1398 12.6184 29.8248 9.31076 31.3223 5.88122C31.635 5.00898 32.2602 4.13362 31.9476 3.19886C31.6975 2.3235 30.5126 2.5736 29.828 2.8237C29.012 3.19886 28.3273 3.69594 27.577 4.1305C27.1394 4.3806 26.5798 4.25555 26.1421 4.50565C24.8322 5.44354 24.3319 6.87851 23.7098 8.18843C22.9626 9.62339 22.4624 11.0584 21.8372 12.4933C20.7773 14.9912 19.53 17.361 18.4076 19.8558L12.3426 21.2251C12.3426 21.2251 16.6569 11.1209 18.467 5.94062C18.5295 5.69052 18.467 5.31536 18.2794 5.13091C17.5917 4.56818 16.6569 4.88081 15.9097 5.13091C14.5373 8.31348 13.2148 11.4554 11.7924 14.6786C10.8576 16.7982 10.3105 17.8112 9.50081 19.9964C9.37576 20.3091 8.79739 22.1036 8.79739 22.1036C5.29594 23.3916 3.51395 23.8605 0.747184 24.7234C0.562733 25.5331 0.125052 26.2209 0 27.0337C0.684658 27.0962 1.49749 27.0337 2.0571 27.2838C2.49478 27.4714 2.24468 28.2186 2.55731 28.5937C3.24509 29.1565 4.11733 29.3441 4.68006 30.0912C4.99269 30.4664 5.05522 30.9635 5.05522 31.4637C4.99269 32.8361 4.30803 34.0835 3.87035 35.456C3.3046 37.236 2.70109 39.0038 2.06023 40.7582C1.87265 41.2584 2.18528 41.818 2.31033 42.3182C2.49791 42.6308 2.87306 42.8153 3.24509 42.5683C3.55772 42.3182 3.7453 41.943 3.93288 41.6335C4.55814 40.3861 4.99269 39.1387 5.4929 37.8913C6.55271 35.0214 7.42807 32.1515 8.48789 29.2815C10.6075 28.8438 12.6677 28.2217 14.853 28.2217C14.9781 28.2217 14.9155 28.5343 14.9155 28.7219C13.8557 33.0894 12.3582 36.8972 11.361 41.2021C11.2359 41.5772 11.1108 42.0743 11.2984 42.2619C12.4833 43.4468 13.4806 44.6316 14.4185 46.0666C14.481 46.1291 14.606 46.1917 14.7311 46.1917C15.1688 46.2542 15.6659 46.2542 16.041 46.2542C16.5412 46.1917 16.6037 45.4413 16.7913 45.0068C18.4764 41.077 19.4737 37.0816 20.7211 33.0268C21.1588 31.7169 21.5933 30.4695 21.9685 29.0971C22.2811 27.8497 22.5937 26.6648 23.0908 25.48C23.2784 25.1048 23.591 24.8547 23.9005 24.6046C24.9572 23.4103 25.892 22.2286 27.205 21.2907ZM68.4471 1.13551C67.6968 0.0131668 66.0742 0.26327 65.1395 0.947929C62.6447 2.82058 62.1445 5.81557 60.9596 8.4354C60.647 9.06066 60.2718 9.62027 60.0248 10.183C57.0924 16.298 54.782 22.4131 51.9121 28.5281C51.2681 29.813 50.821 31.1792 50.2896 32.7079C50.227 32.7705 50.1645 32.7705 50.102 32.833C49.9144 32.4578 49.3517 32.2077 49.4142 31.7732C49.7268 26.471 50.474 21.3532 51.1618 15.9854C51.3494 14.738 51.537 13.6157 51.7871 12.3683C52.0372 10.8708 52.4123 9.62339 52.7218 8.1259C52.9719 7.06608 53.0344 6.0688 53.097 5.00586C53.097 3.94604 53.1595 2.75805 52.7218 1.76076C52.4092 1.01045 51.7871 0.0756926 50.7866 0.325796C50.4115 0.450848 50.102 0.763477 49.7268 0.888529C48.667 1.13863 47.232 0.826003 46.7318 1.94834C42.8646 11.1834 39.879 20.5123 37.1247 30.1506C36.7496 31.4606 36.2525 32.6454 36.0649 34.0179C35.8773 35.2653 35.5647 36.3876 35.3146 37.6381C35.0645 39.0731 34.5049 40.383 34.3799 41.818C34.2548 42.5651 34.2548 43.2529 34.3142 44.0001C34.5487 44.6879 35.8899 43.9063 36.3119 43.3155C36.4995 41.943 36.8121 40.6331 37.1247 39.1981C37.6875 36.2657 38.5597 33.5833 39.4319 30.7759C40.7429 26.5921 42.2419 22.4695 43.9244 18.4208C44.0495 18.0456 44.112 17.5454 44.5497 17.2359C44.5497 19.9808 44.0495 22.6632 43.987 25.4112C43.9244 29.591 43.7369 33.7084 43.7369 37.8913C43.7369 38.329 44.1745 38.576 44.4872 38.8886C45.7346 39.8859 46.9413 40.78 47.6478 42.215C47.7854 42.4932 48.2325 42.0055 48.4794 41.7586C49.1047 41.0708 49.6018 40.2611 49.9144 39.4482C50.5991 37.8257 51.2243 36.2657 51.9121 34.6431C54.2193 29.2784 56.5296 23.9731 59.212 18.7959C59.2745 18.8585 59.3371 18.921 59.3371 18.9835C58.5273 27.0962 56.9673 34.8964 56.5296 42.9434C56.5296 43.3811 57.0299 43.6937 57.2143 44.0658C57.652 45.1256 58.1491 46.1885 59.1495 46.7481C59.8998 47.1233 60.8971 46.8107 61.1472 46.0603C61.2722 45.4976 61.2722 44.8755 61.3348 44.2502C61.4598 43.625 61.6474 43.0028 61.7099 42.3776C61.96 40.755 62.2726 39.2575 62.5821 37.5725C63.0198 34.9526 63.4544 32.5798 63.9546 29.9599C65.5771 21.3501 67.1997 13.6125 68.7597 5.00273C69.0067 3.69594 69.2568 2.26097 68.4471 1.13551ZM32.3196 31.9295C31.4599 31.6419 30.6439 32.7048 30.1375 33.2707C29.8248 32.7079 29.5747 31.8357 30.0124 31.398C30.8909 30.5195 31.2348 29.8411 30.8253 28.5281C30.4501 27.2182 28.765 26.9055 27.5802 27.3432C26.7267 27.6402 26.389 28.8032 26.4703 29.8536C26.5016 30.2851 26.6016 30.6977 26.7673 31.026C26.8924 31.2761 27.0174 31.7107 27.205 31.9608C26.4016 32.1796 25.1073 33.7334 24.3194 35.3528C23.9161 36.1844 23.6473 37.0347 23.6473 37.7319C23.6473 39.0418 25.4887 39.9141 26.5798 39.5702C27.3144 39.3388 27.8271 38.823 28.5149 38.4478C29.1402 38.9449 29.5747 39.6327 30.3251 40.1329C30.3907 40.1329 30.5126 40.1329 30.5126 40.0704C30.7627 38.823 30.2 37.5756 30.7627 36.5126C31.2004 35.7655 31.8851 35.2653 32.3853 34.5149C32.9074 33.7302 33.1981 32.189 32.3196 31.9295ZM28.0772 36.2031C28.0147 36.7034 27.577 36.8909 27.08 37.0129C26.8299 37.0754 26.5798 36.9503 26.3922 36.7002C26.3202 36.5826 26.2733 36.4513 26.2545 36.3146C26.2356 36.178 26.2453 36.0389 26.2828 35.9061C26.3459 35.6776 26.4462 35.4611 26.5798 35.2653C26.7673 34.9526 27.2113 34.7432 27.577 34.8901C28.2023 35.1433 28.2023 35.7061 28.0772 36.2031ZM28.9495 30.4007C28.6431 30.3226 28.4493 30.0006 28.3336 29.6692C28.27 29.4815 28.226 29.2876 28.2023 29.0908C28.1648 28.7751 28.4524 28.5031 28.765 28.5281C29.1246 28.5594 29.6373 28.7782 29.5747 29.2784C29.5122 29.7161 29.4497 30.4633 28.9495 30.4007Z" fill="#68768E"/>
</svg>
