<?xml version="1.0" encoding="UTF-8" standalone="no"?>
<svg
   xmlns:dc="http://purl.org/dc/elements/1.1/"
   xmlns:cc="http://creativecommons.org/ns#"
   xmlns:rdf="http://www.w3.org/1999/02/22-rdf-syntax-ns#"
   xmlns:svg="http://www.w3.org/2000/svg"
   xmlns="http://www.w3.org/2000/svg"
   xmlns:sodipodi="http://sodipodi.sourceforge.net/DTD/sodipodi-0.dtd"
   xmlns:inkscape="http://www.inkscape.org/namespaces/inkscape"
   version="1.1"
   id="Capa_1"
   x="0px"
   y="0px"
   viewBox="0 0 426.667 426.667"
   style="enable-background:new 0 0 426.667 426.667;"
   xml:space="preserve"
   sodipodi:docname="home.svg"
   inkscape:version="1.0.2 (e86c870879, 2021-01-15)"><metadata
   id="metadata43"><rdf:RDF><cc:Work
       rdf:about=""><dc:format>image/svg+xml</dc:format><dc:type
         rdf:resource="http://purl.org/dc/dcmitype/StillImage" /></cc:Work></rdf:RDF></metadata><defs
   id="defs41" /><sodipodi:namedview
   pagecolor="#ffffff"
   bordercolor="#666666"
   borderopacity="1"
   objecttolerance="10"
   gridtolerance="10"
   guidetolerance="10"
   inkscape:pageopacity="0"
   inkscape:pageshadow="2"
   inkscape:window-width="753"
   inkscape:window-height="480"
   id="namedview39"
   showgrid="false"
   inkscape:zoom="0.46883238"
   inkscape:cx="247.67245"
   inkscape:cy="224.38756"
   inkscape:window-x="0"
   inkscape:window-y="27"
   inkscape:window-maximized="0"
   inkscape:current-layer="Capa_1" />
<g
   id="g6"
   transform="matrix(0.92035342,0,0,0.8895763,16.991205,23.557011)">
	<g
   id="g4">
		<path
   d="M 382.713,140.038 243.547,11.683 c -16.878,-15.566 -43.524,-15.589 -60.427,0 L 43.953,140.038 c -13.073,12.057 -22.62,33.752 -22.62,51.485 v 192.533 c 0,23.529 19.193,42.61 42.67,42.61 H 192.34 V 299.528 h 42.44 v 127.138 h 127.814 c 23.579,0 42.738,-19.033 42.738,-42.61 V 191.523 c 0.001,-17.737 -9.519,-39.404 -22.619,-51.485 z M 362.595,384 H 277.448 V 256.862 H 149.674 V 384 C 92.558,384.016 64,384.035 64,384.056 V 191.523 c 0,-5.793 4.546,-16.125 8.88,-20.122 L 212.047,43.047 c 0.551,-0.508 2.024,-0.507 2.573,0 l 139.167,128.354 c 4.354,4.016 8.88,14.316 8.88,20.122 C 362.66,319.841 362.636,384 362.595,384 Z"
   id="path2" />
	</g>
</g>
<g
   id="g8">
</g>
<g
   id="g10">
</g>
<g
   id="g12">
</g>
<g
   id="g14">
</g>
<g
   id="g16">
</g>
<g
   id="g18">
</g>
<g
   id="g20">
</g>
<g
   id="g22">
</g>
<g
   id="g24">
</g>
<g
   id="g26">
</g>
<g
   id="g28">
</g>
<g
   id="g30">
</g>
<g
   id="g32">
</g>
<g
   id="g34">
</g>
<g
   id="g36">
</g>
</svg>
