<svg width="14" height="14" viewBox="0 0 14 14" fill="none" xmlns="http://www.w3.org/2000/svg">
<g clip-path="url(#clip0)">
<path d="M13.9862 4.11579C13.9534 3.37192 13.8331 2.86051 13.6608 2.41737C13.483 1.94699 13.2096 1.52586 12.8512 1.17577C12.5011 0.820229 12.0772 0.54396 11.6123 0.368969C11.1666 0.196648 10.6579 0.0763547 9.91399 0.0435571C9.16457 0.00798195 8.92665 -0.000244141 7.02589 -0.000244141C5.12513 -0.000244141 4.88722 0.00798195 4.14057 0.0407795C3.39669 0.073577 2.88529 0.193977 2.44226 0.366191C1.97177 0.54396 1.55063 0.817451 1.20055 1.17577C0.845007 1.52586 0.568846 1.94977 0.393748 2.4147C0.221428 2.86051 0.101135 3.36914 0.0683373 4.11302C0.0327622 4.86245 0.0245361 5.10036 0.0245361 7.00112C0.0245361 8.90189 0.0327622 9.1398 0.0655597 9.88645C0.0983572 10.6303 0.218757 11.1417 0.391077 11.5849C0.568846 12.0553 0.845007 12.4764 1.20055 12.8265C1.55063 13.182 1.97454 13.4583 2.43948 13.6333C2.88529 13.8056 3.39392 13.9259 4.1379 13.9587C4.88444 13.9916 5.12246 13.9997 7.02322 13.9997C8.92398 13.9997 9.16189 13.9916 9.90855 13.9587C10.6524 13.9259 11.1638 13.8056 11.6069 13.6333C12.5477 13.2695 13.2916 12.5256 13.6554 11.5849C13.8276 11.1391 13.948 10.6303 13.9808 9.88645C14.0136 9.1398 14.0218 8.90189 14.0218 7.00112C14.0218 5.10036 14.019 4.86245 13.9862 4.11579ZM12.7255 9.83175C12.6954 10.5155 12.5805 10.8847 12.4848 11.1308C12.2496 11.7407 11.7655 12.2248 11.1556 12.46C10.9095 12.5558 10.5376 12.6706 9.85652 12.7006C9.11809 12.7335 8.89663 12.7417 7.02867 12.7417C5.16071 12.7417 4.93647 12.7335 4.20071 12.7006C3.51699 12.6706 3.14778 12.5558 2.90163 12.46C2.59812 12.3479 2.32186 12.1701 2.09762 11.9376C1.86515 11.7106 1.68738 11.4371 1.57521 11.1336C1.47948 10.8875 1.36464 10.5155 1.33462 9.83453C1.30172 9.09611 1.2936 8.87454 1.2936 7.00657C1.2936 5.13861 1.30172 4.91437 1.33462 4.17872C1.36464 3.49499 1.47948 3.12578 1.57521 2.87964C1.68738 2.57602 1.86515 2.29986 2.10039 2.07551C2.3273 1.84304 2.60079 1.66527 2.90441 1.55321C3.15055 1.45748 3.52254 1.34264 4.20349 1.31251C4.94192 1.27971 5.16349 1.27149 7.03134 1.27149C8.90208 1.27149 9.12354 1.27971 9.8593 1.31251C10.543 1.34264 10.9122 1.45748 11.1584 1.55321C11.4619 1.66527 11.7382 1.84304 11.9624 2.07551C12.1949 2.30253 12.3726 2.57602 12.4848 2.87964C12.5805 3.12578 12.6954 3.49766 12.7255 4.17872C12.7583 4.91714 12.7665 5.13861 12.7665 7.00657C12.7665 8.87454 12.7583 9.09333 12.7255 9.83175Z" fill="white"/>
<path d="M7.02597 3.40479C5.04049 3.40479 3.42957 5.0156 3.42957 7.00119C3.42957 8.98678 5.04049 10.5976 7.02597 10.5976C9.01156 10.5976 10.6224 8.98678 10.6224 7.00119C10.6224 5.0156 9.01156 3.40479 7.02597 3.40479ZM7.02597 9.33409C5.73789 9.33409 4.69307 8.28938 4.69307 7.00119C4.69307 5.71301 5.73789 4.66829 7.02597 4.66829C8.31416 4.66829 9.35887 5.71301 9.35887 7.00119C9.35887 8.28938 8.31416 9.33409 7.02597 9.33409Z" fill="white"/>
<path d="M11.6042 3.26245C11.6042 3.7261 11.2283 4.10205 10.7645 4.10205C10.3009 4.10205 9.92493 3.7261 9.92493 3.26245C9.92493 2.79869 10.3009 2.42285 10.7645 2.42285C11.2283 2.42285 11.6042 2.79869 11.6042 3.26245Z" fill="white"/>
</g>
<defs>
<clipPath id="clip0">
<rect width="14" height="14" fill="white" transform="translate(0 -0.000244141)"/>
</clipPath>
</defs>
</svg>
