<svg width="55" height="54" viewBox="0 0 55 54" fill="none" xmlns="http://www.w3.org/2000/svg">
<g clip-path="url(#clip0)">
<path d="M53.9624 31.4448L40.6616 12.9493C39.739 11.6664 38.2552 10.9059 36.6749 10.9059H34.4394V7.82489C34.4394 6.57398 33.4253 5.55981 32.1743 5.55981H31.1233L28.2169 13.4275C28.0894 13.7725 27.7605 14.0017 27.3926 14.0017C27.0248 14.0017 26.6957 13.7725 26.5682 13.4275L23.6618 5.55981H22.6108C21.3599 5.55981 20.3457 6.57398 20.3457 7.82489V10.9059H18.1104C16.53 10.9059 15.0463 11.6664 14.1237 12.9493L0.822654 31.4448C0.132521 32.4046 0.296493 33.7337 1.19917 34.497L3.64479 36.5648C4.54375 37.3249 5.87506 37.2696 6.70795 36.4377L13.875 29.2799L12.875 39.9732C12.8157 40.6079 13.0265 41.2382 13.4557 41.7093C13.7621 42.0456 14.16 42.2762 14.594 42.3821C13.8477 42.7527 13.3336 43.5203 13.3336 44.4099V46.1671C13.3336 47.418 14.3478 48.4322 15.5987 48.4322H39.1866C40.4375 48.4322 41.4517 47.418 41.4517 46.1671V44.4099C41.4517 43.5203 40.9374 42.7525 40.1913 42.3821C40.6253 42.2762 41.0232 42.0454 41.3296 41.7093C41.7588 41.2381 41.9696 40.6079 41.9103 39.9732L40.9102 29.2799L48.0773 36.4377C48.9102 37.2696 50.2415 37.3247 51.1405 36.5648L53.5861 34.497C54.4888 33.7337 54.6528 32.4046 53.9624 31.4448ZM22.6856 33.1076L19.433 38.6616C19.1731 39.1051 18.7065 39.3523 18.2271 39.3523C17.9874 39.3523 17.7447 39.2907 17.523 39.1608C16.8578 38.7712 16.6343 37.916 17.0238 37.2508L20.2764 31.6968C20.6662 31.0316 21.5212 30.8081 22.1864 31.1976C22.8516 31.5872 23.0751 32.4424 22.6856 33.1076ZM37.2621 39.1608C37.0404 39.2905 36.7977 39.3523 36.558 39.3523C36.0788 39.3523 35.612 39.1051 35.3521 38.6616L32.0995 33.1076C31.7098 32.4424 31.9333 31.5872 32.5987 31.1976C33.2637 30.8079 34.1189 31.0314 34.5087 31.6968L37.7613 37.2508C38.1508 37.916 37.9273 38.7712 37.2621 39.1608Z" fill="#5E7C6E"/>
</g>
<defs>
<clipPath id="clip0">
<rect width="53.9922" height="53.9922" fill="white" transform="translate(0.396484)"/>
</clipPath>
</defs>
</svg>
