<svg width="14" height="14" viewBox="0 0 14 14" fill="none" xmlns="http://www.w3.org/2000/svg">
<g clip-path="url(#clip0)">
<path d="M3.13075 4.37476H0V13.9998H3.13075V4.37476Z" fill="white"/>
<path d="M11.6585 4.48763C11.6253 4.47713 11.5938 4.46576 11.5588 4.45613C11.5167 4.44651 11.4747 4.43863 11.4319 4.43163C11.2656 4.39838 11.0836 4.37476 10.8701 4.37476C9.04488 4.37476 7.88725 5.70213 7.50575 6.21488V4.37476H4.375V13.9998H7.50575V8.74976C7.50575 8.74976 9.87175 5.45451 10.8701 7.87476C10.8701 10.0351 10.8701 13.9998 10.8701 13.9998H14V7.50463C14 6.05038 13.0034 4.83851 11.6585 4.48763Z" fill="white"/>
<path d="M1.53125 3.06226C2.37694 3.06226 3.0625 2.37669 3.0625 1.53101C3.0625 0.68532 2.37694 -0.000244141 1.53125 -0.000244141C0.685564 -0.000244141 0 0.68532 0 1.53101C0 2.37669 0.685564 3.06226 1.53125 3.06226Z" fill="white"/>
</g>
<defs>
<clipPath id="clip0">
<rect width="14" height="14" fill="white" transform="translate(0 -0.000244141)"/>
</clipPath>
</defs>
</svg>
