<svg width="41" height="37" viewBox="0 0 41 37" fill="none" xmlns="http://www.w3.org/2000/svg">
<g clip-path="url(#clip0)">
<path d="M34.0347 29.4463C34.0347 29.9185 33.7153 30.2588 33.2569 30.2588C32.7847 30.2588 32.4792 29.8977 32.4792 29.4463C32.4792 28.9949 32.7847 28.6338 33.2569 28.6338C33.7153 28.6338 34.0347 28.9949 34.0347 29.4463ZM12.4514 28.6338C11.9583 28.6338 11.6736 28.9949 11.6736 29.4463C11.6736 29.8977 11.9583 30.2588 12.4514 30.2588C12.9028 30.2588 13.2083 29.9185 13.2083 29.4463C13.2014 28.9949 12.9028 28.6338 12.4514 28.6338ZM20.6111 28.6129C20.2361 28.6129 20.0069 28.856 19.9514 29.2171H21.2778C21.2153 28.8213 20.9722 28.6129 20.6111 28.6129ZM28.0972 28.6338C27.625 28.6338 27.3403 28.9949 27.3403 29.4463C27.3403 29.8977 27.625 30.2588 28.0972 30.2588C28.5694 30.2588 28.875 29.9185 28.875 29.4463C28.875 28.9949 28.5694 28.6338 28.0972 28.6338ZM35.4514 30.4463C35.4514 30.4671 35.4722 30.481 35.4722 30.5227C35.4722 30.5435 35.4514 30.5574 35.4514 30.599C35.4306 30.6199 35.4306 30.6338 35.4167 30.6546C35.3958 30.6754 35.3819 30.6893 35.3403 30.6893C35.3194 30.7102 35.3056 30.7102 35.2639 30.7102C35.2431 30.7102 35.2292 30.7102 35.1875 30.6893C35.1667 30.6893 35.1528 30.6685 35.1319 30.6546C35.1111 30.6338 35.0972 30.6199 35.0972 30.599C35.0764 30.5643 35.0764 30.5435 35.0764 30.5227C35.0764 30.4879 35.0764 30.4671 35.0972 30.4463C35.0972 30.4115 35.1181 30.3907 35.1319 30.3699C35.1528 30.349 35.1667 30.349 35.1875 30.3352C35.2222 30.3143 35.2431 30.3143 35.2639 30.3143C35.2986 30.3143 35.3194 30.3143 35.3403 30.3352C35.375 30.356 35.3958 30.356 35.4167 30.3699C35.4375 30.3838 35.4306 30.4115 35.4514 30.4463ZM35.2986 30.5435C35.3333 30.5435 35.3333 30.5227 35.3542 30.5227C35.375 30.5018 35.375 30.4879 35.375 30.4671C35.375 30.4463 35.375 30.4324 35.3542 30.4115C35.3333 30.4115 35.3194 30.3907 35.2778 30.3907H35.1667V30.6338H35.2222V30.5365H35.2431L35.3194 30.6338H35.375L35.2986 30.5435ZM40.5 6.57821V31.0227C40.5 32.8629 39.0069 34.356 37.1667 34.356H3.83333C1.99306 34.356 0.5 32.8629 0.5 31.0227V6.57821C0.5 4.73793 1.99306 3.24487 3.83333 3.24487H37.1667C39.0069 3.24487 40.5 4.73793 40.5 6.57821ZM4.94444 16.2727C4.94444 21.5852 9.25694 25.8907 14.5625 25.8907C16.4514 25.8907 18.3056 25.3213 19.875 24.2865C14.8125 20.1685 14.8472 12.3977 19.875 8.2796C18.3056 7.23793 16.4514 6.67543 14.5625 6.67543C9.25694 6.66848 4.94444 10.981 4.94444 16.2727ZM20.5 23.8282C25.3958 20.0088 25.375 12.5643 20.5 8.72404C15.625 12.5643 15.6042 20.0157 20.5 23.8282ZM10.6181 29.1268C10.6181 28.5227 10.2222 28.1268 9.59722 28.106C9.27778 28.106 8.9375 28.2032 8.70833 28.5574C8.54167 28.2727 8.25694 28.106 7.86111 28.106C7.59722 28.106 7.33333 28.2032 7.125 28.481V28.1754H6.55556V30.724H7.125C7.125 29.4115 6.95139 28.6268 7.75 28.6268C8.45833 28.6268 8.31944 29.3352 8.31944 30.724H8.86806C8.86806 29.4532 8.69444 28.6268 9.49306 28.6268C10.2014 28.6268 10.0625 29.3213 10.0625 30.724H10.6319V29.1268H10.6181ZM13.7361 28.1754H13.1875V28.481C13 28.2518 12.7361 28.106 12.375 28.106C11.6597 28.106 11.1111 28.6754 11.1111 29.4463C11.1111 30.224 11.6597 30.7865 12.375 30.7865C12.7361 30.7865 13 30.6546 13.1875 30.4115V30.731H13.7361V28.1754ZM16.5486 29.9532C16.5486 28.9115 14.9583 29.3838 14.9583 28.8977C14.9583 28.5018 15.7847 28.5643 16.2431 28.8213L16.4722 28.3699C15.8194 27.9463 14.375 27.9532 14.375 28.9393C14.375 29.9324 15.9653 29.5157 15.9653 29.981C15.9653 30.4185 15.0278 30.3838 14.5278 30.0365L14.2847 30.474C15.0625 31.0018 16.5486 30.8907 16.5486 29.9532ZM19.0069 30.599L18.8542 30.1268C18.5903 30.2727 18.0069 30.4324 18.0069 29.8421V28.6893H18.9167V28.1754H18.0069V27.3977H17.4375V28.1754H16.9097V28.6824H17.4375V29.8421C17.4375 31.0643 18.6389 30.8421 19.0069 30.599ZM19.9306 29.6685H21.8403C21.8403 28.5435 21.3264 28.099 20.6319 28.099C19.8958 28.099 19.3681 28.6477 19.3681 29.4393C19.3681 30.8629 20.9375 31.099 21.7153 30.4254L21.4514 30.0088C20.9097 30.4532 20.0903 30.4115 19.9306 29.6685ZM24.0347 28.1754C23.7153 28.0365 23.2292 28.0504 22.9792 28.481V28.1754H22.4097V30.724H22.9792V29.2865C22.9792 28.481 23.6389 28.5852 23.8681 28.7032L24.0347 28.1754ZM24.7708 29.4463C24.7708 28.6546 25.5764 28.3977 26.2083 28.8629L26.4722 28.4115C25.6667 27.7796 24.2014 28.1268 24.2014 29.4532C24.2014 30.8282 25.7569 31.106 26.4722 30.4949L26.2083 30.0435C25.5694 30.4949 24.7708 30.224 24.7708 29.4463ZM29.4028 28.1754H28.8333V28.481C28.2569 27.7171 26.7569 28.1477 26.7569 29.4463C26.7569 30.7796 28.3125 31.1615 28.8333 30.4115V30.731H29.4028V28.1754ZM31.7431 28.1754C31.5764 28.0921 30.9792 27.974 30.6875 28.481V28.1754H30.1389V30.724H30.6875V29.2865C30.6875 28.5227 31.3125 28.5713 31.5764 28.7032L31.7431 28.1754ZM34.5417 27.1407H33.9931V28.481C33.4236 27.724 31.9167 28.1268 31.9167 29.4463C31.9167 30.7935 33.4792 31.1546 33.9931 30.4115V30.731H34.5417V27.1407ZM35.0694 21.9254V22.2449H35.125V21.9254H35.2569V21.8699H34.9375V21.9254H35.0694ZM35.5278 30.5227C35.5278 30.4879 35.5278 30.4463 35.5069 30.4115C35.4861 30.3907 35.4722 30.356 35.4514 30.3352C35.4306 30.3143 35.3958 30.3004 35.375 30.2796C35.3403 30.2796 35.2986 30.2588 35.2639 30.2588C35.2431 30.2588 35.2083 30.2796 35.1667 30.2796C35.1319 30.3004 35.1111 30.3143 35.0903 30.3352C35.0556 30.356 35.0347 30.3907 35.0347 30.4115C35.0139 30.4463 35.0139 30.4879 35.0139 30.5227C35.0139 30.5435 35.0139 30.5782 35.0347 30.6199C35.0347 30.6407 35.0556 30.6754 35.0903 30.6963C35.1111 30.7171 35.125 30.731 35.1667 30.7518C35.2014 30.7727 35.2431 30.7727 35.2639 30.7727C35.2986 30.7727 35.3403 30.7727 35.375 30.7518C35.3958 30.731 35.4306 30.7171 35.4514 30.6963C35.4722 30.6754 35.4861 30.6407 35.5069 30.6199C35.5278 30.5782 35.5278 30.5435 35.5278 30.5227ZM35.75 21.8629H35.6528L35.5417 22.106L35.4306 21.8629H35.3333V22.2379H35.3889V21.9532L35.5 22.1963H35.5764L35.6736 21.9532V22.2379H35.75V21.8629ZM36.0556 16.2727C36.0556 10.981 31.7431 6.66848 26.4375 6.66848C24.5486 6.66848 22.6944 7.23793 21.125 8.27265C26.1319 12.3907 26.2083 20.1824 21.125 24.2796C22.6944 25.3213 24.5625 25.8838 26.4375 25.8838C31.7431 25.8907 36.0556 21.5852 36.0556 16.2727Z" fill="#A9A9A9"/>
</g>
<defs>
<clipPath id="clip0">
<rect width="40" height="35.5556" fill="white" transform="translate(0.5 0.953125)"/>
</clipPath>
</defs>
</svg>
