<svg width="34" height="33" viewBox="0 0 34 33" fill="none" xmlns="http://www.w3.org/2000/svg">
<path d="M24.1541 30.756C24.9695 30.7551 25.7513 30.4308 26.3279 29.8542C26.9044 29.2776 27.2288 28.4958 27.2297 27.6804V23.5315C27.2297 23.2596 27.1216 22.9989 26.9294 22.8066C26.7371 22.6143 26.4764 22.5063 26.2045 22.5063C25.9326 22.5063 25.6718 22.6143 25.4795 22.8066C25.2873 22.9989 25.1793 23.2596 25.1793 23.5315V27.6804C25.179 27.9522 25.0709 28.2128 24.8787 28.405C24.6865 28.5972 24.4259 28.7053 24.1541 28.7056H5.70058C5.42876 28.7053 5.16814 28.5972 4.97593 28.405C4.78372 28.2128 4.67563 27.9522 4.67539 27.6804V5.12612C4.67563 4.8543 4.78372 4.59368 4.97593 4.40147C5.16814 4.20926 5.42876 4.10117 5.70058 4.10093H24.1541C24.4259 4.10117 24.6865 4.20926 24.8787 4.40147C25.0709 4.59368 25.179 4.8543 25.1793 5.12612V8.28782C25.1793 8.55972 25.2873 8.82048 25.4795 9.01274C25.6718 9.205 25.9326 9.31301 26.2045 9.31301C26.4764 9.31301 26.7371 9.205 26.9294 9.01274C27.1216 8.82048 27.2297 8.55972 27.2297 8.28782V5.12612C27.2288 4.3107 26.9044 3.52893 26.3279 2.95234C25.7513 2.37575 24.9695 2.05143 24.1541 2.05054H5.70058C4.88516 2.05143 4.1034 2.37575 3.52681 2.95234C2.95022 3.52893 2.6259 4.3107 2.625 5.12612V27.6804C2.6259 28.4958 2.95022 29.2776 3.52681 29.8542C4.1034 30.4308 4.88516 30.7551 5.70058 30.756H24.1541Z" fill="white"/>
<path d="M7.75176 19.4788C7.47986 19.4788 7.2191 19.5868 7.02684 19.779C6.83457 19.9713 6.72656 20.2321 6.72656 20.504C6.72656 20.7759 6.83457 21.0366 7.02684 21.2289C7.2191 21.4211 7.47986 21.5291 7.75176 21.5291H11.8525C12.1244 21.5291 12.3852 21.4211 12.5775 21.2289C12.7697 21.0366 12.8777 20.7759 12.8777 20.504C12.8777 20.2321 12.7697 19.9713 12.5775 19.779C12.3852 19.5868 12.1244 19.4788 11.8525 19.4788H7.75176Z" fill="white"/>
<path d="M27.8521 10.8319C27.6599 10.6397 27.3992 10.5317 27.1273 10.5317C26.8555 10.5317 26.5947 10.6397 26.4025 10.8319L16.2537 20.9807C16.1584 21.0759 16.0829 21.1889 16.0313 21.3133C15.9798 21.4377 15.9533 21.571 15.9533 21.7056V23.5798H7.75176C7.47986 23.5798 7.2191 23.6878 7.02684 23.8801C6.83457 24.0723 6.72656 24.3331 6.72656 24.605C6.72656 24.8769 6.83457 25.1376 7.02684 25.3299C7.2191 25.5222 7.47986 25.6302 7.75176 25.6302H19.8784C20.1502 25.6301 20.411 25.5221 20.6032 25.3298L30.7526 15.181C30.9448 14.9887 31.0528 14.728 31.0528 14.4562C31.0528 14.1843 30.9448 13.9236 30.7526 13.7314L27.8521 10.8319ZM19.4539 23.5798H18.0037V22.1301L27.1273 13.0064L28.5775 14.4562L19.4539 23.5798Z" fill="white"/>
<path d="M15.9533 10.7645C15.9533 9.85206 15.6827 8.96011 15.1758 8.20145C14.6689 7.44278 13.9484 6.85147 13.1054 6.5023C12.2624 6.15312 11.3348 6.06176 10.4399 6.23977C9.54501 6.41778 8.72298 6.85716 8.07779 7.50235C7.4326 8.14754 6.99322 8.96957 6.81521 9.86447C6.6372 10.7594 6.72856 11.687 7.07774 12.53C7.42691 13.3729 8.01822 14.0935 8.77688 14.6004C9.53555 15.1073 10.4275 15.3779 11.3399 15.3779C12.5631 15.3765 13.7357 14.89 14.6006 14.0251C15.4655 13.1603 15.952 11.9876 15.9533 10.7645ZM11.3399 13.3275C10.833 13.3275 10.3375 13.1772 9.91602 12.8955C9.49454 12.6139 9.16603 12.2136 8.97205 11.7453C8.77806 11.277 8.72731 10.7617 8.8262 10.2645C8.92509 9.76731 9.16919 9.31063 9.52763 8.95219C9.88607 8.59375 10.3428 8.34965 10.8399 8.25076C11.3371 8.15187 11.8524 8.20262 12.3208 8.39661C12.7891 8.5906 13.1894 8.9191 13.471 9.34058C13.7526 9.76206 13.9029 10.2576 13.9029 10.7645C13.9022 11.444 13.632 12.0955 13.1515 12.576C12.671 13.0565 12.0195 13.3268 11.3399 13.3275Z" fill="white"/>
</svg>
