<svg width="34" height="33" viewBox="0 0 34 33" fill="none" xmlns="http://www.w3.org/2000/svg">
<path d="M3.58203 12.0738C3.58285 12.9498 3.93112 13.7896 4.55043 14.409C5.16974 15.0284 6.0095 15.3768 6.8854 15.3777H12.581C13.4569 15.3768 14.2966 15.0284 14.9159 14.409C15.5352 13.7896 15.8835 12.9498 15.8843 12.0738V6.37932C15.8835 5.50342 15.5352 4.66361 14.9159 4.0442C14.2966 3.4248 13.4569 3.07639 12.581 3.07544H6.8854C6.0095 3.07639 5.16974 3.4248 4.55043 4.0442C3.93112 4.66361 3.58285 5.50342 3.58203 6.37932V12.0738ZM5.63241 6.37932C5.63277 6.04707 5.76487 5.72852 5.99976 5.49353C6.23465 5.25855 6.55315 5.12631 6.8854 5.12582H12.581C12.9132 5.12631 13.2317 5.25855 13.4666 5.49353C13.7015 5.72852 13.8336 6.04707 13.8339 6.37932V12.0738C13.8336 12.4061 13.7015 12.7246 13.4666 12.9596C13.2317 13.1946 12.9132 13.3269 12.581 13.3273H6.8854C6.55315 13.3269 6.23465 13.1946 5.99976 12.9596C5.76487 12.7246 5.63277 12.4061 5.63241 12.0738V6.37932Z" fill="#FDFDFD"/>
<path d="M3.58203 26.4266C3.58285 27.3025 3.93112 28.1423 4.55043 28.7617C5.16974 29.3812 6.0095 29.7296 6.8854 29.7305H12.581C13.4569 29.7296 14.2966 29.3812 14.9159 28.7617C15.5352 28.1423 15.8835 27.3025 15.8843 26.4266V20.7321C15.8835 19.8562 15.5352 19.0164 14.9159 18.397C14.2966 17.7776 13.4569 17.4292 12.581 17.4282H6.8854C6.0095 17.4292 5.16974 17.7776 4.55043 18.397C3.93112 19.0164 3.58285 19.8562 3.58203 20.7321V26.4266ZM5.63241 20.7321C5.63277 20.3999 5.76487 20.0813 5.99976 19.8463C6.23465 19.6113 6.55315 19.4791 6.8854 19.4786H12.581C12.9132 19.4791 13.2317 19.6113 13.4666 19.8463C13.7015 20.0813 13.8336 20.3999 13.8339 20.7321V26.4266C13.8336 26.7589 13.7015 27.0774 13.4666 27.3124C13.2317 27.5474 12.9132 27.6796 12.581 27.6801H6.8854C6.55315 27.6796 6.23465 27.5474 5.99976 27.3124C5.76487 27.0774 5.63277 26.7589 5.63241 26.4266V20.7321Z" fill="#FDFDFD"/>
<path d="M24.0847 3.07544C22.8682 3.07544 21.6789 3.4362 20.6673 4.11209C19.6558 4.78799 18.8674 5.74867 18.4018 6.87264C17.9363 7.99662 17.8144 9.23341 18.0518 10.4266C18.2891 11.6198 18.875 12.7158 19.7352 13.5761C20.5955 14.4364 21.6915 15.0222 22.8847 15.2595C24.0779 15.4969 25.3147 15.3751 26.4387 14.9095C27.5626 14.4439 28.5233 13.6555 29.1992 12.644C29.8751 11.6324 30.2359 10.4432 30.2359 9.22658C30.2341 7.59575 29.5854 6.03222 28.4323 4.87905C27.2791 3.72587 25.7156 3.07723 24.0847 3.07544V3.07544ZM24.0847 13.3273C23.2737 13.3273 22.4808 13.0868 21.8065 12.6362C21.1321 12.1856 20.6065 11.5452 20.2961 10.7959C19.9858 10.0466 19.9045 9.22203 20.0628 8.42656C20.221 7.63109 20.6116 6.90041 21.1851 6.32691C21.7586 5.7534 22.4892 5.36284 23.2847 5.20462C24.0802 5.04639 24.9047 5.1276 25.654 5.43797C26.4033 5.74835 27.0438 6.27395 27.4944 6.94832C27.945 7.62269 28.1855 8.41553 28.1855 9.22658C28.1844 10.3138 27.7519 11.3562 26.9832 12.125C26.2144 12.8938 25.172 13.3262 24.0847 13.3273V13.3273Z" fill="#FDFDFD"/>
<path d="M21.237 17.4282C20.3611 17.4292 19.5213 17.7776 18.902 18.397C18.2827 19.0164 17.9344 19.8562 17.9336 20.7321V26.4266C17.9344 27.3025 18.2827 28.1423 18.902 28.7617C19.5213 29.3812 20.3611 29.7296 21.237 29.7305H26.9325C27.8084 29.7296 28.6482 29.3812 29.2675 28.7617C29.8868 28.1423 30.2351 27.3025 30.2359 26.4266V20.7321C30.2351 19.8562 29.8868 19.0164 29.2675 18.397C28.6482 17.7776 27.8084 17.4292 26.9325 17.4282H21.237ZM28.1855 20.7321V26.4266C28.1851 26.7589 28.053 27.0774 27.8182 27.3124C27.5833 27.5474 27.2648 27.6796 26.9325 27.6801H21.237C20.9047 27.6796 20.5862 27.5474 20.3513 27.3124C20.1164 27.0774 19.9843 26.7589 19.984 26.4266V20.7321C19.9843 20.3999 20.1164 20.0813 20.3513 19.8463C20.5862 19.6113 20.9047 19.4791 21.237 19.4786H26.9325C27.2648 19.4791 27.5833 19.6113 27.8182 19.8463C28.053 20.0813 28.1851 20.3999 28.1855 20.7321V20.7321Z" fill="#FDFDFD"/>
</svg>
