<svg width="80" height="44" viewBox="0 0 80 44" fill="none" xmlns="http://www.w3.org/2000/svg">
<g clip-path="url(#clip0)">
<path d="M42.9483 2.22255C42.6876 2.26276 42.437 3.22271 41.9332 3.72278C41.5647 4.0837 41.1047 4.06112 40.8604 4.50731C40.7677 4.67401 40.7977 4.95854 40.6925 5.23175C40.4869 5.77816 39.7626 5.827 39.7626 6.42235C39.76 7.06528 40.3666 7.18808 40.8917 7.64426C41.3016 8.01147 41.3417 8.26461 41.8379 8.44255C42.2616 8.58675 42.8919 8.11546 43.4597 8.28467C43.9259 8.42384 44.372 8.52405 44.4774 9.00281C44.57 9.44396 44.4711 10.1282 43.9059 10.0493C43.7153 10.028 42.8894 9.74973 41.8743 9.8575C40.6498 9.99667 39.2524 10.3964 39.1158 11.7613C39.0406 12.5245 39.9843 13.4244 40.8955 13.2414C41.5258 13.1172 41.2276 12.3742 41.571 12.0132C42.0209 11.5508 44.57 13.6274 46.94 13.6274C47.9376 13.6274 48.6795 13.3755 49.4165 12.6035C49.4854 12.5446 49.5694 12.418 49.6759 12.4104C49.7762 12.418 49.9516 12.5169 50.0093 12.5596C51.918 14.0936 53.3605 17.1704 60.3751 17.2068C61.3614 17.2117 62.4855 17.683 63.4029 18.5201C64.2214 19.2771 64.7001 20.4539 65.165 21.6483C65.8669 23.4405 67.1252 25.1838 69.0326 27.1239C69.1367 27.2279 70.707 28.4486 70.8323 28.5401C70.8524 28.5526 70.9677 28.8283 70.9277 28.9824C70.8813 30.1455 70.7121 33.528 73.2336 33.6809C73.8503 33.7122 73.6885 33.2786 73.6885 32.9803C73.6873 32.3913 73.5795 31.806 73.8904 31.2032C74.3152 30.3736 72.9893 29.9913 73.0281 28.1979C73.0556 26.8606 71.9327 27.0887 71.3625 26.0698C71.0341 25.4795 70.7421 25.1663 70.7634 24.4443C70.8913 20.3813 69.8986 17.7118 69.4036 17.0563C69.0177 16.5613 68.6981 16.3646 69.0514 16.1352C71.1557 14.7453 71.6332 13.4519 71.6332 13.4519C72.7523 10.8213 73.7588 8.41871 75.1461 7.36107C75.4256 7.14292 76.1425 6.60784 76.5824 6.39725C77.877 5.78688 78.5588 5.41724 78.9348 5.0512C79.5301 4.47097 80 3.26157 79.4297 2.52841C78.7204 1.62351 77.4935 2.34165 76.9521 2.66244C73.0833 4.95854 72.513 9.00902 71.1732 11.3352C70.1042 13.1937 68.3659 14.5586 66.8119 14.6701C65.6463 14.7566 64.3906 14.521 63.1398 13.972C60.0981 12.6386 58.4337 10.9166 58.0415 10.6121C57.2243 9.98165 50.8803 3.75409 45.7406 3.49969C45.7406 3.49969 45.1028 2.22264 44.9423 2.20132C44.5662 2.15364 44.1816 2.96452 43.9059 3.05862C43.6464 3.14498 43.2103 2.18 42.9483 2.22264V2.22255ZM20.3218 39.3909C19.838 39.3795 19.427 38.9823 19.427 38.491L19.4282 22.4592H14.1444V40.1315C14.1444 40.9975 14.8462 41.7044 15.7072 41.7044H24.9426C25.8098 41.7044 26.5029 40.9975 26.5029 40.1315V22.4592H21.2242L21.2191 38.491C21.2191 38.9823 20.808 39.3795 20.3218 39.3909ZM38.0129 22.4592H30.0158C29.0696 22.4592 28.2989 23.2287 28.2989 24.1849V41.7043H33.5875V25.6338C33.5913 25.1413 33.9898 24.7515 34.4812 24.7515C34.975 24.7515 35.371 25.1325 35.3822 25.62V41.7044H40.6497V25.6199C40.656 25.1324 41.052 24.7514 41.5445 24.7514C42.0334 24.7514 42.4369 25.1412 42.4407 25.6337V41.7044H47.7295V24.1849C47.7295 23.2287 46.9574 22.4592 46.0113 22.4592H38.0129ZM7.07344 25.6675C7.07721 25.1324 6.6411 24.7514 6.17862 24.7514H5.28128V34.4855H6.17862C6.64487 34.4855 7.0773 34.1145 7.07344 33.582V25.6675ZM10.619 36.868H5.28128V41.7044H0V22.4592H10.6529C11.6065 22.4592 12.3509 23.2337 12.3509 24.1925V35.1348C12.3509 36.0948 11.5777 36.868 10.619 36.868ZM65.8531 37.4006C64.7916 37.4006 63.9005 38.318 63.9005 39.4297C63.9005 40.5451 64.7916 41.455 65.8869 41.455C66.9736 41.455 67.8533 40.5451 67.8533 39.4297C67.8533 38.3155 66.9736 37.4006 65.8869 37.4006H65.8531ZM68.2318 39.4234C68.2318 40.7305 67.1841 41.7934 65.8869 41.7934C64.576 41.7934 63.5233 40.7382 63.5233 39.4234C63.5233 38.1338 64.576 37.056 65.8481 37.056C67.1841 37.056 68.2318 38.1013 68.2318 39.4234Z" fill="#68768E"/>
<path d="M65.6423 39.273C66.0095 39.273 66.2025 39.1426 66.2025 38.882C66.2025 38.6501 66.0158 38.5311 65.6586 38.5311H65.5533V39.273H65.6423ZM66.9946 40.7945H66.3642L65.5533 39.7154V40.7945H65.0382V38.0661H65.5797C66.3153 38.0661 66.7063 38.3444 66.7063 38.8757C66.7063 39.2304 66.4757 39.545 66.1536 39.6389L66.116 39.6528L66.9946 40.7945ZM56.5963 34.4893V25.6275C56.5837 25.1374 56.189 24.7615 55.6965 24.7615C55.2089 24.7615 54.8053 25.1524 54.8017 25.6413V34.4893H56.5963ZM56.5963 41.7044V36.873H54.8017V41.7044H49.5229V24.1849C49.5229 23.2287 50.2936 22.4592 51.2399 22.4592H60.158C61.1068 22.4592 61.8775 23.2287 61.8775 24.1849V41.7043L56.5963 41.7044Z" fill="#68768E"/>
</g>
<defs>
<clipPath id="clip0">
<rect width="80" height="42.848" fill="white" transform="translate(0 0.284424)"/>
</clipPath>
</defs>
</svg>
