<svg width="42" height="42" viewBox="0 0 42 42" fill="none" xmlns="http://www.w3.org/2000/svg">
<path d="M32.8074 7.82344C31.6361 7.89038 30.4612 7.79638 29.3154 7.54408C27.9333 7.07082 26.6406 6.36842 25.4916 5.4663C24.5085 4.76944 23.5751 4.00516 22.6979 3.179C22.326 2.83164 21.8361 2.63843 21.3273 2.63843C20.8184 2.63843 20.3285 2.83164 19.9566 3.179C19.1028 3.97904 18.2051 4.731 17.2678 5.43138C16.1115 6.34537 14.8141 7.06485 13.4265 7.56154C12.1214 7.85642 10.7807 7.96226 9.44553 7.87582C8.35227 7.83055 7.26228 7.72563 6.18045 7.56154C5.9161 7.52235 5.64656 7.53679 5.3879 7.60401C5.12925 7.67123 4.88678 7.78985 4.67495 7.95279C4.46313 8.11574 4.28628 8.31967 4.15496 8.55243C4.02365 8.78518 3.94054 9.042 3.91061 9.30757C3.82331 10.1457 3.59633 12.3282 3.49157 14.7552C3.34475 17.18 3.49722 19.6137 3.94553 22.0012C5.20973 25.9568 7.53485 29.4898 10.6678 32.2155C13.1579 34.5644 15.8581 36.6801 18.7344 38.5361C19.5053 39.0654 20.4184 39.3487 21.3535 39.3487C22.2885 39.3487 23.2017 39.0654 23.9725 38.5361C26.6963 36.6317 29.244 34.4872 31.5852 32.1282C34.5347 29.3825 36.719 25.9166 37.9233 22.0711" stroke="#151515" stroke-width="3.27381" stroke-linecap="round" stroke-linejoin="round"/>
<path d="M19.2051 19.2248L24.1987 24.2184C24.2298 24.2523 24.2676 24.2794 24.3097 24.2979C24.3517 24.3164 24.3972 24.3259 24.4432 24.3259C24.4891 24.3259 24.5346 24.3164 24.5767 24.2979C24.6188 24.2794 24.6565 24.2523 24.6876 24.2184L38.4114 10.4946" stroke="#5E7C6E" stroke-width="3.27381" stroke-linecap="round" stroke-linejoin="round"/>
</svg>
