<svg width="51" height="50" viewBox="0 0 51 50" fill="none" xmlns="http://www.w3.org/2000/svg">
<g clip-path="url(#clip0)">
<path d="M37.0952 5.12354L36.4706 5.74933V5.12354H33.3939C32.0067 7.26716 29.078 8.74891 25.6778 8.74891C22.2789 8.74891 19.3502 7.26716 17.963 5.12354H14.8863V5.74933L14.2605 5.12354L3.19531 16.195L9.24797 22.2526L14.8863 16.6118V44.8185H36.4681V16.613L42.1077 22.2539L48.1591 16.195L37.0952 5.12354Z" fill="#5E7C6E"/>
<path d="M36.4693 47.3067H14.8875C13.514 47.3067 12.3993 46.192 12.3993 44.8185V22.6208L11.0084 24.0118C10.5418 24.4796 9.90856 24.7408 9.24793 24.7408C8.58855 24.7408 7.95404 24.4783 7.4875 24.0118L1.43484 17.9541C0.464427 16.9825 0.464427 15.4087 1.43484 14.4358L12.5026 3.36431C13.0425 2.82312 13.8226 2.56061 14.574 2.65516C14.6773 2.64272 14.7818 2.63525 14.8875 2.63525H17.9643C18.8078 2.63525 19.5953 3.06323 20.0531 3.77114C21.0323 5.28399 23.2406 6.26063 25.6791 6.26063C28.1175 6.26063 30.3271 5.28399 31.3062 3.77114C31.7641 3.06323 32.5503 2.63525 33.3951 2.63525H36.4718C36.5776 2.63525 36.6821 2.64147 36.7853 2.65516C36.8874 2.64272 36.9906 2.63525 37.0951 2.63525C37.0964 2.63525 37.0964 2.63525 37.0964 2.63525C37.7557 2.63525 38.389 2.89776 38.8568 3.36431L49.922 14.4345C50.8924 15.4062 50.8924 16.98 49.922 17.9529L43.8706 24.0118C43.4041 24.4783 42.7708 24.7408 42.1114 24.7408C42.1102 24.7408 42.1102 24.7408 42.1102 24.7408C41.4508 24.7421 40.8175 24.4796 40.351 24.013L38.9588 22.6196V44.8185C38.9576 46.1932 37.8441 47.3067 36.4693 47.3067ZM17.3758 42.3302H33.9811V16.613C33.9811 15.6065 34.587 14.6995 35.5163 14.3138C36.4469 13.9269 37.5156 14.1409 38.2285 14.8538L42.1077 18.733L44.6432 16.1949L36.6821 8.22883C36.2852 8.26491 35.8945 8.2027 35.5201 8.04843C35.26 7.94144 35.0249 7.79214 34.8209 7.61174H34.6069C32.5528 9.87605 29.2609 11.2371 25.6791 11.2371C22.0972 11.2371 18.8065 9.87605 16.7512 7.61174H16.5372C16.3345 7.79214 16.0993 7.94019 15.8393 8.04843C15.4623 8.20395 15.0617 8.25869 14.6748 8.22883L6.71241 16.1962L9.24793 18.7342L13.1259 14.8538C13.8375 14.1409 14.9074 13.9282 15.838 14.3138C16.7687 14.6995 17.3745 15.6065 17.3745 16.613V42.3302H17.3758Z" fill="#5E7C6E"/>
</g>
<defs>
<clipPath id="clip0">
<rect width="49.9428" height="49.9428" fill="white" transform="translate(0.707031)"/>
</clipPath>
</defs>
</svg>
