<svg width="54" height="54" viewBox="0 0 54 54" fill="none" xmlns="http://www.w3.org/2000/svg">
<g clip-path="url(#clip0)">
<path d="M53.9504 34.9837C53.6817 34.1005 53.4128 33.2173 53.1441 32.3341C52.9903 31.8287 52.4586 31.541 51.9514 31.6884C51.5288 31.8112 51.8334 31.7358 51.4091 31.851L51.3504 31.6393C50.3784 28.1336 47.3363 25.592 43.7137 25.2567C41.0232 25.0079 37.4188 24.281 32.9493 22.5259C32.4043 22.3119 31.7797 21.9943 31.11 21.6078L29.4477 24.221C29.1819 24.6385 28.7311 24.8669 28.2705 24.8669C28.0144 24.8669 27.7558 24.7965 27.5237 24.6489C26.8742 24.2357 26.6826 23.3746 27.0957 22.7249L28.7586 20.111C27.9854 19.5823 27.2044 19.0191 26.4561 18.4614L23.1095 23.0351C22.8365 23.4082 22.413 23.6059 21.9836 23.6059C21.698 23.6059 21.4098 23.5182 21.1617 23.3368C20.5405 22.8823 20.4054 22.0103 20.8599 21.3892L24.2447 16.7636C23.6114 16.2641 23.0535 15.8135 22.6148 15.4547C22.0522 14.9944 21.231 15.052 20.7369 15.5851C18.8066 17.668 13.5267 22.32 4.72562 22.5257C3.874 22.5456 3.03725 22.507 2.21945 22.4427C1.96041 22.4222 1.70472 22.5111 1.51389 22.6876C1.32323 22.8641 1.21509 23.1122 1.21509 23.372V34.1472H0.851619C0.381305 34.1472 0 34.5285 0 34.9988V37.9952C0 38.4655 0.381305 38.8468 0.851619 38.8468C0.851619 38.8468 23.4334 38.7721 23.6915 38.7721C35.5889 38.7721 43.4571 39.054 53.2963 36.191C53.5442 36.1189 53.7529 35.9508 53.8757 35.7237C53.9987 35.4975 54.0255 35.2307 53.9504 34.9837Z" fill="#5E7C6E"/>
</g>
<defs>
<clipPath id="clip0">
<rect width="53.9922" height="53.9922" fill="white"/>
</clipPath>
</defs>
</svg>
