<svg width="49" height="49" viewBox="0 0 49 49" fill="none" xmlns="http://www.w3.org/2000/svg">
<g clip-path="url(#clip0)">
<path d="M48.9328 42.6948C48.8943 42.1557 48.4372 37.2877 47.9369 37.2877C47.894 37.1635 47.2876 35.6765 47.2079 35.3841L39.2872 3.16184C39.1407 2.89667 38.7935 2.68735 38.4918 2.71395C33.7601 3.13102 29.0095 3.33105 24.2593 3.32499C21.847 3.32195 19.4346 3.26591 17.0248 3.15851C15.8186 3.10481 14.6131 3.0384 13.4082 2.95917C12.5483 2.90273 11.2835 3.07028 10.4659 2.85118C10.2945 2.80511 10.1475 3.00201 10.0203 3.27706C9.70484 3.95969 2.21037 35.343 2.21037 35.343C2.10063 35.6253 1.80856 35.9976 1.70126 36.2812C1.06646 37.9608 0.669047 39.7245 0.469705 41.5091C0.425005 41.9081 0.372871 42.3225 0.344995 42.7326C0.324454 43.0349 0.560866 43.3487 0.851271 43.4344C1.45438 43.6121 2.06043 43.7912 2.67967 43.9065C4.89375 44.4548 7.13962 44.8934 9.39751 45.2179C11.8027 45.563 14.2263 45.7698 16.6542 45.8476C17.3571 45.87 18.0542 45.8781 18.755 45.8801C19.0581 45.8812 19.4141 45.6618 19.5542 45.3933C19.8112 44.9001 20.0811 44.3862 20.2821 43.8542C21.1129 41.663 20.9702 39.325 21.7642 37.1857C22.5842 34.9764 23.4673 32.791 24.3622 30.6116C24.4774 30.3313 24.7698 30.2468 24.9145 30.5129C25.4906 31.5711 26.3928 34.35 26.5724 34.8075C26.9597 35.7918 27.3334 36.7821 27.6842 37.7805C28.0141 38.7188 27.9702 39.7307 28.1252 40.7128C28.3424 42.0924 28.7072 43.4341 29.2915 44.7022C29.4002 44.9392 29.5517 45.1914 29.6948 45.4182C29.8565 45.6742 30.2353 45.8822 30.5384 45.8809C31.245 45.8787 31.9513 45.8637 32.6576 45.8422C36.7173 45.7484 40.7813 45.2117 44.7453 44.3408C45.6991 44.1315 46.6678 43.935 47.6057 43.6616C48.3244 43.452 48.9945 43.5707 48.9328 42.6948Z" fill="#5E7C6E"/>
</g>
<defs>
<clipPath id="clip0">
<rect width="48.593" height="48.593" fill="white" transform="translate(0.34375)"/>
</clipPath>
</defs>
</svg>
