<svg width="16" height="22" viewBox="0 0 16 22" fill="none" xmlns="http://www.w3.org/2000/svg">
<path d="M1.00008 8.99991H14.9999C15.2707 8.99991 15.5052 8.90102 15.703 8.70307C15.9007 8.50518 16 8.27084 16 8C16 7.72916 15.9008 7.49493 15.703 7.29676L8.70307 0.296838C8.50529 0.0991647 8.27101 0 8 0C7.72899 0 7.49471 0.0991647 7.29676 0.296838L0.296837 7.29676C0.0988911 7.49471 0 7.72916 0 8C0 8.27079 0.0988911 8.50518 0.296837 8.70307C0.495003 8.90102 0.729288 8.99991 1.00008 8.99991Z" fill="#A9A9A9"/>
<path d="M14.9999 13.0002H1.00008C0.729069 13.0002 0.494784 13.0992 0.296837 13.2969C0.0988911 13.4949 0 13.7291 0 14C0 14.2708 0.0988911 14.5053 0.296837 14.7031L7.29676 21.7029C7.49493 21.9009 7.72921 22 8 22C8.27079 22 8.50529 21.9009 8.70307 21.7029L15.703 14.7031C15.9007 14.5053 16 14.2708 16 13.9999C16 13.7291 15.9008 13.4949 15.703 13.2969C15.5052 13.099 15.2707 13.0002 14.9999 13.0002Z" fill="#A9A9A9"/>
</svg>
