<svg width="14" height="14" viewBox="0 0 14 14" fill="none" xmlns="http://www.w3.org/2000/svg">
<g clip-path="url(#clip0)">
<path d="M14 2.65888C13.4794 2.88726 12.9246 3.03863 12.3462 3.11213C12.9412 2.75688 13.3954 2.19863 13.6089 1.52576C13.0541 1.85651 12.4416 2.09013 11.7889 2.22051C11.2621 1.65963 10.5114 1.31226 9.69238 1.31226C8.10337 1.31226 6.82412 2.60201 6.82412 4.18313C6.82412 4.41063 6.84338 4.62938 6.89062 4.83763C4.5045 4.72126 2.39313 3.57763 0.97475 1.83551C0.727125 2.26513 0.581875 2.75688 0.581875 3.28626C0.581875 4.28026 1.09375 5.16138 1.85675 5.67151C1.39562 5.66276 0.94325 5.52888 0.56 5.31801C0.56 5.32676 0.56 5.33813 0.56 5.34951C0.56 6.74426 1.55487 7.90276 2.8595 8.16963C2.62587 8.23351 2.37125 8.26413 2.107 8.26413C1.92325 8.26413 1.73775 8.25363 1.56362 8.21513C1.9355 9.35176 2.99075 10.1874 4.2455 10.2145C3.269 10.9784 2.02912 11.4386 0.686875 11.4386C0.4515 11.4386 0.22575 11.4281 0 11.3993C1.27137 12.2191 2.77813 12.6873 4.403 12.6873C9.6845 12.6873 12.572 8.31226 12.572 4.52001C12.572 4.39313 12.5676 4.27063 12.5615 4.14901C13.1311 3.74476 13.6097 3.23988 14 2.65888Z" fill="white"/>
</g>
<defs>
<clipPath id="clip0">
<rect width="14" height="14" fill="white" transform="translate(0 -0.000244141)"/>
</clipPath>
</defs>
</svg>
