<svg width="41" height="37" viewBox="0 0 41 37" fill="none" xmlns="http://www.w3.org/2000/svg">
<g clip-path="url(#clip0)">
<path d="M33.1458 17.0156C33.1458 17.0156 33.6736 19.5989 33.7917 20.1406H31.4722C31.7014 19.5225 32.5833 17.1197 32.5833 17.1197C32.5694 17.1406 32.8125 16.4878 32.9514 16.085L33.1458 17.0156ZM40.5 6.50863V30.9531C40.5 32.7933 39.0069 34.2864 37.1667 34.2864H3.83333C1.99306 34.2864 0.5 32.7933 0.5 30.9531V6.50863C0.5 4.66835 1.99306 3.17529 3.83333 3.17529H37.1667C39.0069 3.17529 40.5 4.66835 40.5 6.50863ZM11.0903 23.9531L15.4792 13.1753H12.5278L9.79861 20.5364L9.5 19.0433L8.52778 14.085C8.36806 13.3975 7.875 13.2031 7.26389 13.1753H2.77083L2.72222 13.3906C3.81944 13.6683 4.79861 14.0711 5.65278 14.5781L8.13889 23.9531H11.0903ZM17.6458 23.967L19.3958 13.1753H16.6042L14.8611 23.967H17.6458ZM27.3611 20.4392C27.375 19.21 26.625 18.2725 25.0208 17.5017C24.0417 17.0086 23.4444 16.6753 23.4444 16.1683C23.4583 15.71 23.9514 15.2378 25.0486 15.2378C25.9583 15.217 26.625 15.4322 27.125 15.6475L27.375 15.7656L27.7569 13.4322C27.2083 13.217 26.3333 12.9739 25.2569 12.9739C22.5 12.9739 20.5625 14.4461 20.5486 16.5433C20.5278 18.092 21.9375 18.9531 22.9931 19.4739C24.0694 20.0017 24.4375 20.3489 24.4375 20.8142C24.4236 21.5364 23.5625 21.8697 22.7639 21.8697C21.6528 21.8697 21.0556 21.6961 20.1458 21.2933L19.7778 21.1197L19.3889 23.5433C20.0417 23.842 21.25 24.1058 22.5 24.1197C25.4306 24.1267 27.3403 22.6753 27.3611 20.4392ZM37.1667 23.967L34.9167 13.1753H32.7569C32.0903 13.1753 31.5833 13.3697 31.2986 14.0711L27.1528 23.967H30.0833C30.0833 23.967 30.5625 22.6336 30.6667 22.3489H34.25C34.3333 22.7308 34.5833 23.967 34.5833 23.967H37.1667Z" fill="#A9A9A9"/>
</g>
<defs>
<clipPath id="clip0">
<rect width="40" height="35.5556" fill="white" transform="translate(0.5 0.953125)"/>
</clipPath>
</defs>
</svg>
