<svg width="26" height="26" viewBox="0 0 26 26" fill="none" xmlns="http://www.w3.org/2000/svg">
<g clip-path="url(#clip0)">
<path d="M20.7612 7.18115H4.96884C4.49094 7.18115 4.10352 7.56853 4.10352 8.04639V21.5635C4.10352 23.861 5.97277 25.7302 8.27015 25.7302H17.4596C19.757 25.7302 21.6263 23.861 21.6263 21.5635V8.04639C21.6263 7.56858 21.2391 7.18115 20.7612 7.18115ZM10.7849 20.5187C10.7849 21.1058 10.309 21.5817 9.7218 21.5817C9.13484 21.5817 8.65871 21.1058 8.65871 20.5187V12.3926C8.65871 11.8055 9.13476 11.3296 9.7218 11.3296C10.3089 11.3296 10.7849 11.8055 10.7849 12.3926V20.5187ZM17.0711 20.5187C17.0711 21.1058 16.5952 21.5817 16.0081 21.5817C15.4211 21.5817 14.945 21.1058 14.945 20.5187V12.3926C14.945 11.8055 15.421 11.3296 16.0081 11.3296C16.5952 11.3296 17.0711 11.8055 17.0711 12.3926V20.5187Z" fill="#FDFDFD"/>
<path d="M19.895 1.34629H16.1257V1.01941C16.1257 0.457298 15.6685 0 15.1064 0H10.6251C10.063 0 9.60566 0.457298 9.60566 1.01941V1.34629H5.83637C4.39304 1.34629 3.21875 2.5205 3.21875 3.96386V5.64237C3.21875 5.94256 3.46209 6.18594 3.7624 6.18594H21.9691C22.2692 6.18594 22.5126 5.94256 22.5126 5.64237V3.96386C22.5126 2.52054 21.3384 1.34629 19.895 1.34629Z" fill="#FDFDFD"/>
</g>
<defs>
<clipPath id="clip0">
<rect width="25.7301" height="25.7301" fill="white"/>
</clipPath>
</defs>
</svg>
