<svg width="53" height="53" viewBox="0 0 53 53" fill="none" xmlns="http://www.w3.org/2000/svg">
<rect width="52.4042" height="52.4042" rx="26.2021" fill="#A9A9A9"/>
<path d="M23.6512 20.9697C23.6069 20.9124 23.4518 20.8051 23.1858 20.6477C22.9199 20.4903 22.5874 20.3257 22.1885 20.154C21.7895 19.9823 21.3537 19.8321 20.8808 19.7033C20.408 19.5745 19.9352 19.5101 19.4624 19.5101C18.1622 19.5101 17.512 19.9322 17.512 20.7765C17.512 21.0341 17.5785 21.2487 17.7115 21.4204C17.8593 21.5922 18.0661 21.7496 18.3321 21.8927C18.6128 22.0215 18.96 22.1431 19.3737 22.2576C19.7875 22.3721 20.2677 22.5008 20.8144 22.6439C21.5679 22.8443 22.2476 23.0661 22.8534 23.3094C23.4592 23.5383 23.9689 23.8317 24.3826 24.1894C24.8111 24.5328 25.1362 24.955 25.3578 25.4558C25.5942 25.9567 25.7124 26.5577 25.7124 27.2589C25.7124 28.1175 25.5425 28.8473 25.2027 29.4483C24.8776 30.035 24.4417 30.5144 23.895 30.8864C23.3483 31.2442 22.7204 31.5089 22.0112 31.6806C21.3019 31.838 20.5706 31.9167 19.817 31.9167C19.2408 31.9167 18.6497 31.8738 18.044 31.788C17.4382 31.7021 16.8471 31.5805 16.2709 31.4231C15.6947 31.2513 15.1332 31.051 14.5865 30.822C14.0546 30.5931 13.5596 30.3283 13.1016 30.0278L14.6973 26.9584C14.7564 27.0299 14.9485 27.1659 15.2736 27.3662C15.5986 27.5665 15.9976 27.7669 16.4704 27.9672C16.958 28.1676 17.4973 28.3464 18.0883 28.5038C18.6793 28.6612 19.2777 28.7399 19.8835 28.7399C21.169 28.7399 21.8117 28.3607 21.8117 27.6023C21.8117 27.3161 21.7157 27.08 21.5236 26.894C21.3315 26.7079 21.0655 26.5434 20.7257 26.4003C20.3859 26.2429 19.9795 26.0998 19.5067 25.971C19.0487 25.8422 18.5463 25.6991 17.9996 25.5417C17.2756 25.327 16.6477 25.0981 16.1158 24.8548C15.5838 24.5972 15.1406 24.3039 14.786 23.9748C14.4461 23.6456 14.1876 23.2664 14.0103 22.8371C13.8477 22.4078 13.7665 21.907 13.7665 21.3346C13.7665 20.5332 13.9216 19.8249 14.2319 19.2096C14.5422 18.5943 14.9633 18.0791 15.4952 17.6641C16.0271 17.2348 16.6403 16.9128 17.3347 16.6982C18.044 16.4835 18.7901 16.3762 19.5732 16.3762C20.1199 16.3762 20.6592 16.4263 21.1911 16.5265C21.723 16.6266 22.2328 16.7554 22.7204 16.9128C23.208 17.0702 23.6586 17.2491 24.0723 17.4495C24.5008 17.6498 24.8924 17.8501 25.247 18.0505L23.6512 20.9697Z" fill="#FDFDFD"/>
<path d="M32.0785 31.788C31.3101 31.788 30.6083 31.6377 29.9729 31.3372C29.3376 31.0367 28.7909 30.6289 28.3329 30.1137C27.8896 29.5985 27.5424 28.9975 27.2912 28.3107C27.04 27.6238 26.9144 26.8868 26.9144 26.0998C26.9144 25.2698 27.0474 24.5042 27.3134 23.803C27.5793 23.0876 27.9487 22.4722 28.4215 21.9571C28.8943 21.4276 29.4632 21.0126 30.1281 20.7121C30.793 20.4116 31.5244 20.2614 32.3222 20.2614C33.2088 20.2614 33.9771 20.4474 34.6272 20.8194C35.2921 21.1772 35.824 21.678 36.223 22.322V20.476H39.3037V30.9723C39.3037 31.8309 39.1337 32.6036 38.7939 33.2905C38.4688 33.9774 38.0108 34.5569 37.4198 35.0291C36.8288 35.5157 36.1195 35.8877 35.2921 36.1453C34.4647 36.4029 33.556 36.5317 32.566 36.5317C31.3101 36.5317 30.2389 36.3385 29.3524 35.9521C28.4659 35.5658 27.6901 35.0077 27.0252 34.2779L28.9313 32.4104C29.3598 32.8827 29.8917 33.2547 30.527 33.5266C31.1624 33.8128 31.842 33.9559 32.566 33.9559C32.9945 33.9559 33.4009 33.8987 33.785 33.7842C34.1692 33.6697 34.509 33.4908 34.8045 33.2476C35.1 33.0186 35.3291 32.7109 35.4916 32.3246C35.6689 31.9525 35.7575 31.5018 35.7575 30.9723V29.8776C35.4029 30.5072 34.8932 30.9866 34.2283 31.3157C33.5634 31.6305 32.8468 31.788 32.0785 31.788ZM33.2974 29.0619C33.8441 29.0619 34.3317 28.9188 34.7602 28.6326C35.1887 28.3321 35.5211 27.9529 35.7575 27.495V25.1339C35.5211 24.5328 35.1591 24.0606 34.6715 23.7172C34.184 23.3594 33.6668 23.1806 33.1201 23.1806C32.736 23.1806 32.3813 23.2664 32.0563 23.4381C31.746 23.5956 31.4727 23.8174 31.2362 24.1036C31.0146 24.3754 30.8373 24.6974 30.7043 25.0695C30.5861 25.4272 30.527 25.7993 30.527 26.1856C30.527 26.6006 30.5935 26.987 30.7265 27.3447C30.8743 27.6882 31.0737 27.9887 31.3249 28.2463C31.5761 28.5038 31.8642 28.7042 32.1893 28.8473C32.5291 28.9904 32.8985 29.0619 33.2974 29.0619Z" fill="#FDFDFD"/>
</svg>
