<svg width="246" height="246" viewBox="0 0 246 246" fill="none" xmlns="http://www.w3.org/2000/svg">
<rect width="246" height="246" rx="123" fill="#F9F9F9"/>
<path d="M111.025 98.4375C110.817 98.1688 110.089 97.665 108.84 96.9261C107.592 96.1872 106.031 95.4147 104.158 94.6086C102.286 93.8025 100.24 93.0972 98.0201 92.4926C95.8006 91.888 93.581 91.5857 91.3615 91.5857C85.2578 91.5857 82.206 93.5674 82.206 97.5307C82.206 98.7398 82.5181 99.7475 83.1423 100.554C83.8359 101.36 84.807 102.099 86.0555 102.77C87.3733 103.375 89.0033 103.946 90.9454 104.483C92.8874 105.021 95.1416 105.625 97.708 106.297C101.245 107.237 104.436 108.279 107.28 109.421C110.123 110.495 112.516 111.872 114.458 113.552C116.47 115.164 117.996 117.146 119.036 119.497C120.146 121.848 120.701 124.669 120.701 127.961C120.701 131.991 119.903 135.417 118.308 138.238C116.782 140.993 114.736 143.243 112.17 144.99C109.603 146.669 106.655 147.912 103.326 148.718C99.9969 149.457 96.5635 149.826 93.0262 149.826C90.3211 149.826 87.5467 149.625 84.7029 149.222C81.8592 148.818 79.0848 148.247 76.3797 147.509C73.6747 146.702 71.039 145.762 68.4727 144.687C65.9757 143.612 63.6521 142.37 61.502 140.959L68.9929 126.55C69.2703 126.886 70.172 127.524 71.6979 128.465C73.2238 129.405 75.0966 130.345 77.3161 131.286C79.605 132.226 82.1366 133.066 84.911 133.805C87.6854 134.544 90.4945 134.913 93.3383 134.913C99.3726 134.913 102.39 133.133 102.39 129.573C102.39 128.229 101.939 127.121 101.037 126.248C100.136 125.375 98.8871 124.602 97.2918 123.93C95.6965 123.191 93.7891 122.52 91.5696 121.915C89.4194 121.31 87.0612 120.639 84.4949 119.9C81.0962 118.892 78.1484 117.817 75.6514 116.675C73.1545 115.466 71.0737 114.089 69.409 112.544C67.8137 110.999 66.5999 109.219 65.7676 107.204C65.0046 105.189 64.6232 102.837 64.6232 100.151C64.6232 96.3887 65.3514 93.0636 66.808 90.1751C68.2646 87.2866 70.2413 84.8683 72.7383 82.9202C75.2353 80.905 78.1137 79.3936 81.3736 78.3859C84.7029 77.3783 88.2056 76.8745 91.8817 76.8745C94.448 76.8745 96.9797 77.1096 99.4767 77.5798C101.974 78.0501 104.367 78.6546 106.655 79.3936C108.944 80.1325 111.06 80.9722 113.002 81.9126C115.013 82.853 116.851 83.7935 118.516 84.7339L111.025 98.4375Z" fill="#FDFDFD"/>
<path d="M150.585 149.222C146.978 149.222 143.683 148.516 140.701 147.106C137.719 145.695 135.152 143.78 133.002 141.362C130.921 138.944 129.291 136.122 128.112 132.898C126.933 129.674 126.343 126.214 126.343 122.52C126.343 118.624 126.968 115.03 128.216 111.738C129.465 108.379 131.199 105.491 133.418 103.073C135.638 100.587 138.308 98.6391 141.429 97.2284C144.55 95.8177 147.984 95.1124 151.729 95.1124C155.891 95.1124 159.498 95.9857 162.549 97.7322C165.671 99.4116 168.168 101.763 170.04 104.786V96.12H184.502V145.393C184.502 149.423 183.704 153.05 182.109 156.275C180.583 159.499 178.433 162.22 175.659 164.437C172.884 166.72 169.555 168.467 165.671 169.676C161.786 170.885 157.521 171.49 152.874 171.49C146.978 171.49 141.949 170.583 137.788 168.769C133.626 166.956 129.985 164.336 126.864 160.91L135.811 152.144C137.823 154.36 140.32 156.107 143.302 157.383C146.284 158.727 149.475 159.398 152.874 159.398C154.885 159.398 156.793 159.13 158.596 158.592C160.399 158.055 161.995 157.215 163.382 156.073C164.769 154.999 165.844 153.554 166.607 151.741C167.439 149.994 167.856 147.878 167.856 145.393V140.254C166.191 143.209 163.798 145.46 160.677 147.005C157.556 148.483 154.192 149.222 150.585 149.222ZM156.307 136.425C158.873 136.425 161.162 135.753 163.174 134.41C165.185 132.999 166.746 131.219 167.856 129.069V117.985C166.746 115.164 165.046 112.947 162.758 111.335C160.469 109.656 158.041 108.816 155.475 108.816C153.671 108.816 152.007 109.219 150.481 110.025C149.024 110.764 147.741 111.805 146.631 113.149C145.591 114.425 144.759 115.937 144.134 117.683C143.579 119.362 143.302 121.109 143.302 122.923C143.302 124.871 143.614 126.684 144.238 128.364C144.932 129.976 145.868 131.387 147.047 132.596C148.227 133.805 149.579 134.745 151.105 135.417C152.7 136.089 154.434 136.425 156.307 136.425Z" fill="#FDFDFD"/>
</svg>
