<svg width="542" height="523" viewBox="0 0 542 523" fill="none" xmlns="http://www.w3.org/2000/svg">
<rect x="-98" y="-117" width="640" height="640" rx="320" fill="#F9F9F9"/>
<path d="M190.847 139.098C190.305 138.399 188.411 137.088 185.162 135.166C181.914 133.243 177.854 131.233 172.982 129.136C168.11 127.039 162.787 125.204 157.012 123.631C151.238 122.058 145.464 121.272 139.689 121.272C123.81 121.272 115.87 126.427 115.87 136.738C115.87 139.884 116.682 142.506 118.306 144.603C120.111 146.7 122.637 148.622 125.885 150.37C129.313 151.943 133.554 153.428 138.607 154.826C143.659 156.225 149.524 157.797 156.2 159.545C165.403 161.992 173.704 164.701 181.102 167.672C188.501 170.468 194.726 174.05 199.779 178.419C205.012 182.614 208.982 187.769 211.689 193.886C214.576 200.003 216.019 207.343 216.019 215.906C216.019 226.392 213.944 235.305 209.794 242.645C205.824 249.81 200.501 255.665 193.824 260.209C187.147 264.578 179.478 267.811 170.817 269.908C162.155 271.83 153.223 272.792 144.02 272.792C136.983 272.792 129.765 272.267 122.366 271.219C114.968 270.17 107.75 268.685 100.712 266.762C93.6747 264.665 86.8176 262.218 80.141 259.422C73.6448 256.626 67.5998 253.393 62.0059 249.723L81.4944 212.236C82.2162 213.11 84.562 214.77 88.5319 217.217C92.5018 219.664 97.3739 222.11 103.148 224.557C109.103 227.004 115.69 229.188 122.907 231.111C130.125 233.033 137.434 233.994 144.832 233.994C160.531 233.994 168.381 229.363 168.381 220.1C168.381 216.605 167.208 213.722 164.862 211.45C162.516 209.178 159.268 207.168 155.118 205.42C150.967 203.498 146.005 201.75 140.231 200.177C134.637 198.605 128.501 196.857 121.825 194.935C112.983 192.313 105.314 189.517 98.8175 186.546C92.3213 183.4 86.9079 179.818 82.5771 175.798C78.4267 171.778 75.2689 167.147 73.1035 161.904C71.1185 156.661 70.1261 150.545 70.1261 143.554C70.1261 133.767 72.0208 125.117 75.8102 117.602C79.5997 110.087 84.7425 103.796 91.2386 98.7275C97.7348 93.4846 105.223 89.5524 113.705 86.9309C122.366 84.3095 131.479 82.9988 141.043 82.9988C147.719 82.9988 154.306 83.6104 160.802 84.8338C167.298 86.0571 173.524 87.63 179.478 89.5524C185.433 91.4748 190.937 93.6593 195.989 96.106C201.222 98.5527 206.004 100.999 210.335 103.446L190.847 139.098Z" fill="#FDFDFD"/>
<path d="M293.766 271.219C284.383 271.219 275.811 269.384 268.052 265.714C260.293 262.044 253.616 257.063 248.022 250.771C242.609 244.48 238.368 237.14 235.301 228.751C232.233 220.363 230.699 211.362 230.699 201.75C230.699 191.614 232.323 182.264 235.571 173.701C238.819 164.963 243.331 157.448 249.105 151.156C254.879 144.69 261.827 139.622 269.947 135.952C278.067 132.282 286.999 130.447 296.744 130.447C307.571 130.447 316.954 132.719 324.894 137.263C333.014 141.632 339.51 147.749 344.382 155.613V133.068H382.006V261.257C382.006 271.743 379.931 281.18 375.78 289.569C371.81 297.957 366.217 305.035 358.999 310.803C351.781 316.744 343.119 321.288 333.014 324.434C322.909 327.58 311.811 329.153 299.721 329.153C284.383 329.153 271.3 326.793 260.473 322.075C249.646 317.356 240.173 310.54 232.053 301.627L255.33 278.821C260.563 284.588 267.06 289.132 274.819 292.452C282.578 295.948 290.879 297.695 299.721 297.695C304.954 297.695 309.916 296.996 314.608 295.598C319.3 294.2 323.45 292.015 327.059 289.045C330.668 286.248 333.465 282.491 335.45 277.772C337.615 273.228 338.698 267.723 338.698 261.257V247.888C334.367 255.577 328.142 261.432 320.022 265.451C311.901 269.296 303.15 271.219 293.766 271.219ZM308.653 237.926C315.33 237.926 321.285 236.179 326.518 232.683C331.751 229.013 335.811 224.382 338.698 218.79V189.954C335.811 182.614 331.39 176.847 325.435 172.652C319.48 168.283 313.164 166.099 306.488 166.099C301.796 166.099 297.465 167.147 293.495 169.244C289.706 171.167 286.368 173.876 283.481 177.371C280.774 180.691 278.608 184.624 276.984 189.167C275.541 193.536 274.819 198.08 274.819 202.799C274.819 207.867 275.631 212.586 277.255 216.955C279.06 221.149 281.496 224.819 284.563 227.965C287.631 231.111 291.15 233.557 295.12 235.305C299.27 237.052 303.781 237.926 308.653 237.926Z" fill="#FDFDFD"/>
</svg>
