<svg width="137" height="53" viewBox="0 0 137 53" fill="none" xmlns="http://www.w3.org/2000/svg">
<path d="M78.429 22.2094C78.37 22.1308 78.1637 21.9835 77.81 21.7673C77.4562 21.5511 77.0141 21.3251 76.4835 21.0893C75.9529 20.8338 75.3732 20.6275 74.7443 20.4703C74.1155 20.2934 73.4866 20.205 72.8578 20.205C71.1284 20.205 70.2638 20.7847 70.2638 21.9442C70.2638 22.6516 70.6372 23.1527 71.3839 23.4475C72.1503 23.7423 73.241 24.096 74.6559 24.5087C75.9922 24.8821 77.1418 25.3144 78.1047 25.8057C79.0873 26.2773 79.8439 26.916 80.3745 27.7217C80.9051 28.5078 81.1704 29.5493 81.1704 30.8463C81.1704 32.0254 80.9542 33.0276 80.5219 33.853C80.0896 34.6587 79.5 35.317 78.7533 35.828C78.0065 36.3193 77.1615 36.6828 76.2182 36.9186C75.2946 37.1348 74.3316 37.2429 73.3294 37.2429C71.7769 37.2429 70.2048 37.0169 68.613 36.5649C67.0213 36.0933 65.6162 35.4546 64.3978 34.6489L66.5201 30.4336C66.5988 30.5319 66.8542 30.7186 67.2866 30.9937C67.7189 31.2492 68.2593 31.5243 68.9078 31.8191C69.5563 32.1138 70.2638 32.3693 71.0302 32.5855C71.8162 32.782 72.6121 32.8803 73.4178 32.8803C75.1275 32.8803 75.9824 32.3595 75.9824 31.318C75.9824 30.7874 75.7564 30.3747 75.3044 30.0799C74.8721 29.7655 74.2727 29.5002 73.5063 29.284C72.7399 29.0482 71.8752 28.7829 70.9123 28.4881C68.9864 27.8986 67.5617 27.1813 66.6381 26.3363C65.7341 25.4913 65.2821 24.2827 65.2821 22.7106C65.2821 21.2367 65.626 19.9986 66.3138 18.9964C67.0213 17.9745 67.9645 17.2081 69.1436 16.6972C70.3227 16.1666 71.6099 15.9013 73.0052 15.9013C74.479 15.9013 75.8743 16.1568 77.191 16.6677C78.5076 17.159 79.6277 17.6699 80.5514 18.2005L78.429 22.2094ZM91.0227 37.3019C89.2737 37.3019 87.7802 36.9383 86.5422 36.2112C85.3041 35.4841 84.351 34.5212 83.6829 33.3224C83.0344 32.1237 82.7101 30.8267 82.7101 29.4314C82.7101 27.9379 83.0344 26.5721 83.6829 25.334C84.3314 24.096 85.2747 23.1036 86.5127 22.3568C87.7508 21.6101 89.2541 21.2367 91.0227 21.2367C92.7717 21.2367 94.2652 21.6101 95.5033 22.3568C96.7413 23.1036 97.6748 24.0862 98.3036 25.3046C98.9521 26.523 99.2764 27.8298 99.2764 29.2251C99.2764 29.795 99.2371 30.2961 99.1585 30.7284H87.7213C87.7999 31.7699 88.1733 32.5658 88.8414 33.1161C89.5292 33.6467 90.3055 33.912 91.1701 33.912C91.8579 33.912 92.5163 33.7449 93.1451 33.4108C93.774 33.0768 94.2063 32.6248 94.4421 32.0549L98.451 33.175C97.8418 34.3934 96.8887 35.3858 95.5917 36.1522C94.3144 36.9186 92.7914 37.3019 91.0227 37.3019ZM87.6034 27.8396H94.3242C94.2259 26.857 93.8624 26.0808 93.2335 25.5109C92.6243 24.9214 91.8678 24.6266 90.9638 24.6266C90.0598 24.6266 89.2934 24.9214 88.6646 25.5109C88.0554 26.1005 87.7016 26.8767 87.6034 27.8396ZM107.427 37.066C106.052 37.066 104.853 36.7123 103.831 36.0049C102.809 35.2974 102.004 34.3541 101.414 33.175C100.844 31.9959 100.559 30.6891 100.559 29.2545C100.559 27.7414 100.864 26.3854 101.473 25.1867C102.082 23.9683 102.927 23.0053 104.008 22.2979C105.089 21.5904 106.337 21.2367 107.752 21.2367C108.911 21.2367 109.933 21.4922 110.817 22.0031C111.702 22.4944 112.409 23.1822 112.94 24.0665V21.5315H117.037V35.9459C117.037 37.518 116.654 38.874 115.887 40.0138C115.141 41.1536 114.089 42.0281 112.733 42.6373C111.397 43.2661 109.844 43.5805 108.076 43.5805C106.425 43.5805 105 43.3054 103.802 42.7552C102.623 42.2246 101.591 41.468 100.707 40.4854L103.242 37.9209C103.811 38.5694 104.519 39.0803 105.364 39.4537C106.229 39.8467 107.133 40.0432 108.076 40.0432C108.842 40.0432 109.54 39.9057 110.169 39.6306C110.817 39.3554 111.338 38.9133 111.731 38.3041C112.124 37.7145 112.321 36.9285 112.321 35.9459V34.4426C111.849 35.3072 111.161 35.9655 110.257 36.4175C109.373 36.8499 108.43 37.066 107.427 37.066ZM109.049 33.3224C109.776 33.3224 110.424 33.1259 110.994 32.7329C111.564 32.3202 112.006 31.7994 112.321 31.1706V27.9281C112.006 27.1223 111.525 26.4738 110.876 25.9825C110.228 25.4913 109.54 25.2456 108.813 25.2456C108.145 25.2456 107.545 25.4421 107.015 25.8352C106.504 26.2085 106.101 26.7097 105.806 27.3385C105.511 27.9674 105.364 28.6453 105.364 29.3724C105.364 30.5122 105.718 31.4555 106.425 32.2023C107.133 32.949 108.007 33.3224 109.049 33.3224ZM127.638 37.3019C125.87 37.3019 124.366 36.9285 123.128 36.1817C121.91 35.435 120.977 34.4524 120.328 33.234C119.68 32.0156 119.355 30.6989 119.355 29.284C119.355 27.8494 119.68 26.523 120.328 25.3046C120.977 24.0862 121.92 23.1036 123.158 22.3568C124.396 21.6101 125.889 21.2367 127.638 21.2367C129.387 21.2367 130.881 21.6101 132.119 22.3568C133.357 23.1036 134.3 24.0862 134.949 25.3046C135.597 26.523 135.922 27.8494 135.922 29.284C135.922 30.6989 135.597 32.0156 134.949 33.234C134.3 34.4524 133.357 35.435 132.119 36.1817C130.881 36.9285 129.387 37.3019 127.638 37.3019ZM124.19 29.284C124.19 30.4828 124.514 31.4555 125.162 32.2023C125.831 32.949 126.656 33.3224 127.638 33.3224C128.601 33.3224 129.407 32.949 130.056 32.2023C130.724 31.4555 131.058 30.4828 131.058 29.284C131.058 28.0853 130.724 27.1125 130.056 26.3658C129.407 25.619 128.601 25.2456 127.638 25.2456C126.656 25.2456 125.831 25.619 125.162 26.3658C124.514 27.1125 124.19 28.0853 124.19 29.284Z" fill="#A9A9A9"/>
<rect width="52.4042" height="52.4042" rx="26.2021" fill="#A9A9A9"/>
<path d="M23.6512 20.9697C23.6069 20.9124 23.4518 20.8051 23.1858 20.6477C22.9199 20.4903 22.5874 20.3257 22.1885 20.154C21.7895 19.9823 21.3537 19.8321 20.8808 19.7033C20.408 19.5745 19.9352 19.5101 19.4624 19.5101C18.1622 19.5101 17.512 19.9322 17.512 20.7765C17.512 21.0341 17.5785 21.2487 17.7115 21.4204C17.8593 21.5922 18.0661 21.7496 18.3321 21.8927C18.6128 22.0215 18.96 22.1431 19.3737 22.2576C19.7875 22.3721 20.2677 22.5008 20.8144 22.6439C21.5679 22.8443 22.2476 23.0661 22.8534 23.3094C23.4592 23.5383 23.9689 23.8317 24.3826 24.1894C24.8111 24.5328 25.1362 24.955 25.3578 25.4558C25.5942 25.9567 25.7124 26.5577 25.7124 27.2589C25.7124 28.1175 25.5425 28.8473 25.2027 29.4483C24.8776 30.035 24.4417 30.5144 23.895 30.8864C23.3483 31.2442 22.7204 31.5089 22.0112 31.6806C21.3019 31.838 20.5706 31.9167 19.817 31.9167C19.2408 31.9167 18.6497 31.8738 18.044 31.788C17.4382 31.7021 16.8471 31.5805 16.2709 31.4231C15.6947 31.2513 15.1332 31.051 14.5865 30.822C14.0546 30.5931 13.5596 30.3283 13.1016 30.0278L14.6973 26.9584C14.7564 27.0299 14.9485 27.1659 15.2736 27.3662C15.5986 27.5665 15.9976 27.7669 16.4704 27.9672C16.958 28.1676 17.4973 28.3464 18.0883 28.5038C18.6793 28.6612 19.2777 28.7399 19.8835 28.7399C21.169 28.7399 21.8117 28.3607 21.8117 27.6023C21.8117 27.3161 21.7157 27.08 21.5236 26.894C21.3315 26.7079 21.0655 26.5434 20.7257 26.4003C20.3859 26.2429 19.9795 26.0998 19.5067 25.971C19.0487 25.8422 18.5463 25.6991 17.9996 25.5417C17.2756 25.327 16.6477 25.0981 16.1158 24.8548C15.5838 24.5972 15.1406 24.3039 14.786 23.9748C14.4461 23.6456 14.1876 23.2664 14.0103 22.8371C13.8477 22.4078 13.7665 21.907 13.7665 21.3346C13.7665 20.5332 13.9216 19.8249 14.2319 19.2096C14.5422 18.5943 14.9633 18.0791 15.4952 17.6641C16.0271 17.2348 16.6403 16.9128 17.3347 16.6982C18.044 16.4835 18.7901 16.3762 19.5732 16.3762C20.1199 16.3762 20.6592 16.4263 21.1911 16.5265C21.723 16.6266 22.2328 16.7554 22.7204 16.9128C23.208 17.0702 23.6586 17.2491 24.0723 17.4495C24.5008 17.6498 24.8924 17.8501 25.247 18.0505L23.6512 20.9697Z" fill="#FDFDFD"/>
<path d="M32.0785 31.788C31.3101 31.788 30.6083 31.6377 29.9729 31.3372C29.3376 31.0367 28.7909 30.6289 28.3329 30.1137C27.8896 29.5985 27.5424 28.9975 27.2912 28.3107C27.04 27.6238 26.9144 26.8868 26.9144 26.0998C26.9144 25.2698 27.0474 24.5042 27.3134 23.803C27.5793 23.0876 27.9487 22.4722 28.4215 21.9571C28.8943 21.4276 29.4632 21.0126 30.1281 20.7121C30.793 20.4116 31.5244 20.2614 32.3222 20.2614C33.2088 20.2614 33.9771 20.4474 34.6272 20.8194C35.2921 21.1772 35.824 21.678 36.223 22.322V20.476H39.3037V30.9723C39.3037 31.8309 39.1337 32.6036 38.7939 33.2905C38.4688 33.9774 38.0108 34.5569 37.4198 35.0291C36.8288 35.5157 36.1195 35.8877 35.2921 36.1453C34.4647 36.4029 33.556 36.5317 32.566 36.5317C31.3101 36.5317 30.2389 36.3385 29.3524 35.9521C28.4659 35.5658 27.6901 35.0077 27.0252 34.2779L28.9313 32.4104C29.3598 32.8827 29.8917 33.2547 30.527 33.5266C31.1624 33.8128 31.842 33.9559 32.566 33.9559C32.9945 33.9559 33.4009 33.8987 33.785 33.7842C34.1692 33.6697 34.509 33.4908 34.8045 33.2476C35.1 33.0186 35.3291 32.7109 35.4916 32.3246C35.6689 31.9525 35.7575 31.5018 35.7575 30.9723V29.8776C35.4029 30.5072 34.8932 30.9866 34.2283 31.3157C33.5634 31.6305 32.8468 31.788 32.0785 31.788ZM33.2974 29.0619C33.8441 29.0619 34.3317 28.9188 34.7602 28.6326C35.1887 28.3321 35.5211 27.9529 35.7575 27.495V25.1339C35.5211 24.5328 35.1591 24.0606 34.6715 23.7172C34.184 23.3594 33.6668 23.1806 33.1201 23.1806C32.736 23.1806 32.3813 23.2664 32.0563 23.4381C31.746 23.5956 31.4727 23.8174 31.2362 24.1036C31.0146 24.3754 30.8373 24.6974 30.7043 25.0695C30.5861 25.4272 30.527 25.7993 30.527 26.1856C30.527 26.6006 30.5935 26.987 30.7265 27.3447C30.8743 27.6882 31.0737 27.9887 31.3249 28.2463C31.5761 28.5038 31.8642 28.7042 32.1893 28.8473C32.5291 28.9904 32.8985 29.0619 33.2974 29.0619Z" fill="#FDFDFD"/>
</svg>
